<svg width="32" height="32" viewBox="0 0 32 32" fill="none" xmlns="http://www.w3.org/2000/svg">
<path fill-rule="evenodd" clip-rule="evenodd" d="M19.0557 3.73617C18.7719 3.62715 18.4861 3.51732 18.2002 3.40458L18.2001 3.40456C17.5314 3.13706 16.8626 2.86955 16.1827 2.59647C16.1762 2.59255 16.1693 2.58894 16.1623 2.58521C16.1392 2.573 16.1135 2.55947 16.0879 2.52959C16.1106 2.52732 16.1324 2.52321 16.154 2.51912C16.1854 2.51318 16.2165 2.5073 16.2496 2.5073C16.7121 2.485 17.1747 2.53516 17.6317 2.60761C18.5624 2.75252 19.4653 2.98102 20.3514 3.28197C21.3658 3.62194 22.3355 4.05108 23.2495 4.61397C23.9016 5.02082 24.5091 5.48339 25.0441 6.04071C25.3896 6.40297 25.6906 6.79867 25.9414 7.23338L25.9414 7.23342C25.9581 7.26127 25.9748 7.28913 25.986 7.31698C25.9893 7.32367 25.9886 7.32835 25.9876 7.33584C25.9869 7.34083 25.986 7.34708 25.986 7.35599C24.5982 6.52558 23.1994 5.74533 21.7002 5.149C20.2065 4.55267 18.6739 4.0678 17.1023 3.71668C17.8992 3.73898 18.6962 3.77242 19.4987 3.95076C19.4811 3.89347 19.4426 3.88148 19.4079 3.8707C19.3988 3.86785 19.3899 3.86509 19.3817 3.86159C19.2734 3.81982 19.1647 3.77806 19.0557 3.73617ZM7.74943 6.76854C7.61274 6.73573 7.47341 6.70229 7.33799 6.66493C7.08162 6.59805 6.82525 6.5256 6.56888 6.44758C6.51873 6.43643 6.46857 6.41971 6.40726 6.39742C6.6692 6.13548 6.94786 5.93484 7.25996 5.75092C7.75598 5.48898 8.29101 5.33851 8.84276 5.24934C9.43352 5.15459 10.0243 5.15459 10.615 5.17688C10.887 5.18465 11.1616 5.21138 11.4371 5.23818C11.5568 5.24983 11.6767 5.2615 11.7966 5.27163L12.2006 5.31342L12.6047 5.35523C13.2066 5.4221 13.8029 5.53914 14.3881 5.68962C15.0457 5.85682 15.6978 6.05745 16.3387 6.28595C16.3833 6.30267 16.4335 6.31382 16.4948 6.30825C16.4873 6.30267 16.4799 6.29648 16.4725 6.29029C16.4576 6.2779 16.4428 6.26552 16.4279 6.25809C16.3326 6.2075 16.2386 6.15487 16.1448 6.10234L16.1448 6.10234L16.1447 6.10233C15.9699 6.0044 15.7956 5.9068 15.6142 5.82338C15.2185 5.63946 14.8172 5.47226 14.4104 5.31621C13.4848 4.96613 12.5304 4.69857 11.579 4.43188L11.5787 4.43182L11.5787 4.43179C11.4245 4.38858 11.2705 4.3454 11.1166 4.30189C11.0739 4.28888 11.0306 4.2765 10.9872 4.26412C10.9005 4.23935 10.8138 4.21458 10.7321 4.18485C10.6596 4.15698 10.5816 4.11797 10.5259 4.06781C10.381 3.9452 10.4033 3.72227 10.5705 3.62753C10.6652 3.5718 10.7767 3.53278 10.8826 3.51607C11.0726 3.48229 11.2657 3.45811 11.4597 3.43383C11.5218 3.42606 11.5839 3.41828 11.6461 3.41017C11.694 3.40473 11.7419 3.39908 11.7898 3.39341L11.7899 3.39341C11.9873 3.37009 12.1855 3.34669 12.3873 3.33772C12.5712 3.33215 12.7607 3.3433 12.9446 3.37116C13.9422 3.52721 14.9176 3.75014 15.8984 3.98422C17.1023 4.26845 18.2949 4.60842 19.4653 5.00969C20.435 5.34408 21.3881 5.72306 22.3299 6.12433C23.1436 6.47544 23.9573 6.82656 24.7487 7.2334C25.5345 7.64024 26.2925 8.0861 26.9947 8.6267C27.3848 8.93323 27.7415 9.2732 28.009 9.69676C28.1874 9.98099 28.3211 10.2875 28.3713 10.6219L28.4883 11.4245C28.4931 11.4674 28.4897 11.5062 28.4851 11.5584L28.4851 11.5585L28.4851 11.5585L28.4828 11.5861C28.4159 11.5694 28.3657 11.5526 28.3156 11.5359C27.9361 11.4032 27.5572 11.2694 27.1784 11.1357L27.1783 11.1357L27.1783 11.1357L27.1782 11.1357C26.3166 10.8315 25.456 10.5277 24.5927 10.2374C23.099 9.7302 21.5998 9.24533 20.1007 8.76603C19.5623 8.59314 19.0157 8.43965 18.4686 8.28601L18.4685 8.286C18.2397 8.22173 18.0107 8.15743 17.7822 8.09167C17.6733 8.06328 17.5605 8.0389 17.4504 8.01513L17.3921 8.0025C17.3586 7.99507 17.3252 7.9926 17.2918 7.99012L17.2918 7.99012H17.2918C17.275 7.98888 17.2583 7.98764 17.2416 7.98578C17.2416 7.99136 17.2402 7.99693 17.2388 8.0025C17.2374 8.00808 17.236 8.01365 17.236 8.01922C17.2583 8.02758 17.2792 8.03593 17.3001 8.04429L17.3001 8.04431C17.321 8.05266 17.3419 8.06102 17.3642 8.06938C18.228 8.37034 19.0919 8.67129 19.9502 8.97782C21.5608 9.55743 23.1715 10.1538 24.7654 10.7835C25.724 11.1625 26.677 11.5526 27.6022 11.9985C27.7694 12.0765 27.931 12.1545 28.0926 12.2437C28.5441 12.4889 28.8729 12.8568 29.1237 13.3026C29.3522 13.7039 29.4637 14.1442 29.5361 14.5956C29.5417 14.6179 29.5417 14.6458 29.5417 14.6736C29.5417 14.6795 29.5386 14.687 29.5348 14.6959L29.5348 14.696C29.5315 14.704 29.5276 14.7133 29.525 14.7238L29.4837 14.7075L29.4836 14.7074L29.4835 14.7074C29.4457 14.6925 29.4116 14.679 29.3745 14.6625C29.0669 14.5235 28.7599 14.3834 28.4529 14.2435C27.714 13.9065 26.9754 13.5698 26.2312 13.2469C24.9215 12.684 23.6062 12.1267 22.2854 11.5972C21.0816 11.118 19.8667 10.6666 18.6519 10.2152L18.6518 10.2151L18.6516 10.2151C17.1524 9.65775 15.6365 9.15059 14.115 8.66572C12.9967 8.30905 11.8735 7.96229 10.7502 7.61552L10.7501 7.61548C10.1884 7.44209 9.62673 7.2687 9.06569 7.09407C8.7703 6.99932 8.46935 6.9213 8.1684 6.84327C8.10499 6.82742 8.03979 6.81879 7.97483 6.81018L7.97482 6.81018L7.97481 6.81018C7.92558 6.80366 7.87649 6.79715 7.82843 6.78754L7.74943 6.76854ZM29.0401 15.6712C29.341 15.9387 29.5472 16.2731 29.6364 16.6744C29.6643 16.8026 29.642 16.9196 29.603 17.0645C29.5807 17.1537 29.5695 17.1593 29.4804 17.1314C29.3984 17.1049 29.3165 17.0794 29.235 17.0541L29.2348 17.054C29.1279 17.0208 29.0218 16.9878 28.9175 16.9531C28.2306 16.7334 27.5424 16.5137 26.8542 16.2941L26.8498 16.2926C26.1601 16.0725 25.4704 15.8524 24.7821 15.6322C24.4676 15.532 24.1544 15.4318 23.8413 15.3316L23.84 15.3312L23.838 15.3305C23.5253 15.2305 23.2125 15.1304 22.8984 15.0303L22.7646 14.9969C22.7646 15.008 22.7591 15.0192 22.7535 15.0303C22.7813 15.0442 22.8078 15.0582 22.8343 15.0721C22.8608 15.086 22.8872 15.1 22.9151 15.1139C23.5059 15.4149 24.1022 15.7158 24.693 16.0112C25.0701 16.2007 25.4472 16.3896 25.8243 16.5784C26.5786 16.9562 27.3328 17.3339 28.087 17.7166C28.3378 17.8448 28.5831 17.9897 28.8283 18.1402C28.9453 18.207 29.0456 18.2962 29.1459 18.3854L29.146 18.3854C29.2574 18.4801 29.3187 18.6083 29.3466 18.7532C29.3745 18.887 29.3076 18.9817 29.1683 18.9929C29.0066 19.004 28.8506 18.9594 28.7001 18.9037L27.6133 18.4857C27.0835 18.2852 26.5544 18.084 26.0255 17.8828C25.1135 17.536 24.2021 17.1893 23.2885 16.8472C21.4103 16.1394 19.5322 15.4539 17.6317 14.813C17.0523 14.6198 16.4729 14.4366 15.8935 14.2534L15.8931 14.2532L15.8929 14.2532L15.8927 14.2531C15.6029 14.1615 15.3132 14.0698 15.0234 13.977C14.912 13.938 14.795 13.9101 14.678 13.8822L14.6779 13.8822L14.6779 13.8822L14.6779 13.8822C14.6556 13.8767 14.6277 13.8767 14.5999 13.8934C14.6077 13.8981 14.615 13.9027 14.6222 13.9073C14.6406 13.919 14.6578 13.9299 14.6779 13.938C15.1773 14.1526 15.6775 14.3664 16.1778 14.5804L16.1779 14.5804L16.178 14.5804L16.1784 14.5806L16.1787 14.5807C17.0293 14.9445 17.8806 15.3084 18.7296 15.6768C19.1924 15.8789 19.6532 16.0866 20.1144 16.2945L20.1145 16.2946C20.442 16.4422 20.7696 16.5899 21.0982 16.7357C22.0513 17.1593 23.0098 17.5828 23.974 17.9953C24.0725 18.0374 24.171 18.0793 24.2695 18.1213C25.0578 18.4571 25.846 18.7928 26.599 19.1991C27.0507 19.4426 27.4969 19.7 27.9435 19.9576C28.1305 20.0654 28.3175 20.1733 28.505 20.2803C28.6276 20.3472 28.7057 20.453 28.7614 20.5812C28.8394 20.7596 28.7335 20.9156 28.6109 20.9714C28.466 21.0438 28.31 21.0438 28.1539 21.0159C28.0592 20.9992 27.9644 20.9714 27.8697 20.9379C27.4712 20.7986 27.0714 20.6607 26.6715 20.5227C26.2716 20.3848 25.8717 20.2468 25.4732 20.1075C25.0272 19.9538 24.582 19.7984 24.1367 19.6429C23.4357 19.3982 22.7344 19.1534 22.029 18.9148C20.2903 18.3242 18.5462 17.739 16.802 17.1539L16.8017 17.1539L16.8015 17.1538L16.8013 17.1537C16.3166 16.9921 15.8333 16.832 15.3501 16.6718L15.3496 16.6717L15.3481 16.6712L15.3471 16.6708C14.8644 16.5109 14.3817 16.3509 13.8976 16.1895C13.8757 16.1833 13.8521 16.177 13.8247 16.1698L13.8244 16.1697L13.8241 16.1696C13.8029 16.164 13.7794 16.1578 13.7527 16.1505C13.778 16.2062 13.8125 16.2205 13.8478 16.2352L13.8586 16.2397C14.0197 16.3123 14.1808 16.3858 14.3423 16.4595C14.5774 16.5669 14.8134 16.6746 15.0513 16.7803C15.2865 16.8845 15.5213 16.9891 15.7561 17.0935L15.7562 17.0936L15.7563 17.0936C16.5508 17.4472 17.3443 17.8003 18.1444 18.1402C19.2424 18.6027 20.3458 19.0486 21.4605 19.4833C23.2829 20.1911 25.1221 20.8487 26.9836 21.4507C27.0587 21.4757 27.1353 21.4994 27.2118 21.523L27.2121 21.5231L27.2123 21.5232C27.2888 21.5468 27.3654 21.5705 27.4406 21.5956C27.5966 21.6457 27.7359 21.7182 27.853 21.8352C28.0202 22.0024 28.0703 22.203 28.0034 22.426C27.931 22.6489 27.7471 22.7492 27.5297 22.7882C27.2957 22.8272 27.0671 22.7882 26.8442 22.7325C26.2897 22.5932 25.7351 22.4552 25.1806 22.3173C24.6261 22.1793 24.0715 22.0414 23.517 21.9021C22.3912 21.6178 21.2766 21.3225 20.1675 20.9825C20.148 20.9769 20.1271 20.9727 20.1062 20.9686C20.0853 20.9644 20.0644 20.9602 20.0449 20.9546C20.0421 20.9602 20.0407 20.9644 20.0393 20.9685L20.0393 20.9686L20.0393 20.9686C20.0379 20.9728 20.0365 20.9769 20.0338 20.9825C20.0494 20.9892 20.0651 20.9969 20.0812 21.0047C20.1051 21.0163 20.1297 21.0282 20.1564 21.0382C20.4488 21.1522 20.7421 21.2637 21.0356 21.3752C21.5027 21.5528 21.9703 21.7305 22.4358 21.9188C23.0112 22.1498 23.5993 22.3333 24.1881 22.5171C24.3806 22.5772 24.5732 22.6373 24.7654 22.6991C25.1923 22.837 25.6091 22.9983 26.0262 23.1598L26.0263 23.1598L26.0264 23.1598C26.1484 23.2071 26.2705 23.2543 26.3928 23.301C26.445 23.3184 26.4939 23.346 26.5419 23.3732C26.5554 23.3808 26.5689 23.3884 26.5823 23.3957C26.8498 23.535 26.9278 23.8694 26.8777 24.0979C26.8554 24.215 26.7885 24.2986 26.6993 24.371C26.5154 24.5215 26.3036 24.6051 26.0695 24.5995C25.8745 24.5949 25.6794 24.5709 25.4843 24.5469C25.4453 24.5421 25.4063 24.5373 25.3673 24.5326C24.6235 24.435 23.9068 24.2366 23.1881 24.0376L23.1881 24.0375C23.0453 23.998 22.9023 23.9584 22.7591 23.9196C21.4215 23.5573 20.0839 23.1839 18.7463 22.8049C17.5143 22.4503 16.286 22.092 15.0554 21.733L15.055 21.7329L14.2209 21.4897C14.1317 21.4674 14.0425 21.4395 13.9534 21.4116C13.9311 21.4061 13.9032 21.4061 13.8809 21.4061C13.8781 21.4089 13.8767 21.413 13.8753 21.4172C13.874 21.4214 13.8726 21.4256 13.8698 21.4284C13.9004 21.4423 13.931 21.4576 13.9617 21.4729L13.9617 21.4729L13.9617 21.4729C13.9924 21.4883 14.023 21.5036 14.0537 21.5175C14.6667 21.7739 15.2854 22.0303 15.904 22.2811C17.2193 22.8161 18.5457 23.3233 19.8888 23.7914C21.0871 24.2094 22.2965 24.5828 23.5393 24.8559C23.7398 24.9004 23.9389 24.945 24.138 24.9895C24.3374 25.0342 24.5368 25.0788 24.7375 25.1234C24.8156 25.1457 24.8936 25.168 24.966 25.2014C25.2113 25.3185 25.3339 25.5581 25.2837 25.8201C25.2559 25.9705 25.1555 26.0708 25.0218 26.121C24.8936 26.1712 24.7598 26.2102 24.6261 26.2325C24.353 26.2826 24.0688 26.2715 23.7901 26.2436C23.7531 26.2399 23.7137 26.2411 23.6735 26.2424C23.653 26.243 23.6324 26.2436 23.6118 26.2436C23.6086 26.2467 23.6073 26.2516 23.6057 26.2573L23.6057 26.2573C23.605 26.2598 23.6042 26.2624 23.6033 26.265C23.6026 26.2672 23.6017 26.2693 23.6006 26.2715L23.7176 26.3384C23.7789 26.369 23.8415 26.3982 23.9042 26.4275L23.9043 26.4275L23.9043 26.4275C23.967 26.4568 24.0297 26.4861 24.0911 26.5167L24.1077 26.5255C24.1873 26.5674 24.2742 26.6132 24.2638 26.7173C24.2588 26.8132 24.1761 26.8451 24.0985 26.8751L24.0743 26.8845C24.013 26.9124 23.9461 26.9291 23.8793 26.9347C23.5839 26.9458 23.2885 26.9403 22.9987 26.8957C22.5752 26.8288 22.1516 26.7731 21.7281 26.7174L21.7281 26.7174L21.728 26.7173L21.728 26.7173L21.6538 26.7077C21.2488 26.6552 20.8395 26.602 20.435 26.539C19.7885 26.4387 19.142 26.3384 18.4955 26.2325C18.3619 26.2102 18.2283 26.1851 18.0947 26.1601L18.0946 26.1601L18.0943 26.16C17.9605 26.1349 17.8268 26.1099 17.693 26.0876C17.6763 26.0848 17.6582 26.0848 17.6387 26.0848H17.6387C17.6192 26.0848 17.5983 26.0848 17.576 26.082C17.6072 26.1399 17.6526 26.1515 17.6952 26.1624C17.7059 26.1651 17.7164 26.1678 17.7264 26.1712L17.7281 26.1717L17.7282 26.1717L17.7284 26.1717C18.1513 26.2997 18.5742 26.4277 19.0027 26.5557C19.9502 26.8399 20.8976 27.1075 21.8618 27.3304C22.1121 27.3893 22.3648 27.4336 22.6167 27.4778C22.7463 27.5005 22.8756 27.5231 23.0043 27.5477C23.0089 27.5501 23.0145 27.5524 23.021 27.5551C23.0302 27.5589 23.0414 27.5635 23.0544 27.57L23.0451 27.5777L23.0308 27.5897L23.0308 27.5897C23.0132 27.6047 22.9976 27.618 22.982 27.6258C22.7646 27.7372 22.5361 27.7874 22.302 27.8208C21.9286 27.8766 21.5552 27.8877 21.1818 27.871C20.9464 27.8619 20.7073 27.8382 20.4705 27.8146H20.4705H20.4704C20.4158 27.8092 20.3612 27.8038 20.3068 27.7985C19.7495 27.7484 19.1978 27.6481 18.646 27.5422C17.8936 27.3973 17.1468 27.2078 16.4 27.0127C15.4637 26.7675 14.5497 26.4443 13.6468 26.1043C12.666 25.7309 11.6851 25.3575 10.7098 24.9618C9.37219 24.4156 8.07363 23.7803 6.81408 23.0725C6.13044 22.6898 5.44679 22.312 4.76315 21.9343L4.76304 21.9342L4.76282 21.9341C4.4211 21.7453 4.07939 21.5565 3.73767 21.3671C3.60949 21.2946 3.4813 21.2221 3.35869 21.1386C3.24165 21.0605 3.16363 20.9546 3.12462 20.8209C3.06888 20.6314 3.14134 20.5255 3.3364 20.5366C3.44786 20.5422 3.55933 20.5701 3.65964 20.6091C3.877 20.6927 4.09435 20.7791 4.31171 20.8655C4.52906 20.9518 4.74642 21.0382 4.96378 21.1218L4.96413 21.122C5.78885 21.434 6.61357 21.7461 7.44386 22.047C8.16684 22.3092 8.89266 22.5629 9.61728 22.8161L9.61774 22.8163L9.61891 22.8167C9.91036 22.9186 10.2016 23.0204 10.4924 23.1226C10.5319 23.137 10.5737 23.149 10.6178 23.1617C10.6422 23.1688 10.6673 23.176 10.693 23.1839C10.693 23.1356 10.6619 23.1219 10.6351 23.1101C10.6278 23.1069 10.6209 23.1039 10.615 23.1003C10.4944 23.0428 10.3737 22.9846 10.253 22.9265L10.2529 22.9264L10.2528 22.9263C10.0113 22.8099 9.76975 22.6935 9.52824 22.582L9.31404 22.4818C7.91913 21.8293 6.51869 21.1742 5.10311 20.5645C4.69442 20.3862 4.28078 20.2128 3.86714 20.0394C3.6603 19.9527 3.45345 19.866 3.24723 19.7787C3.09675 19.7118 2.94627 19.6394 2.82924 19.5223C2.74006 19.4331 2.68433 19.3328 2.65647 19.2102C2.61745 19.0375 2.70105 18.9204 2.87939 18.9037C3.04102 18.887 3.20264 18.8981 3.35869 18.9427C4.06649 19.1322 4.77429 19.3328 5.46537 19.578C5.82276 19.7047 6.18382 19.8167 6.54557 19.9289C6.62948 19.9549 6.71342 19.981 6.79736 20.0072C6.81963 20.0128 6.84189 20.0169 6.86415 20.0211L6.86424 20.0211L6.86433 20.0211C6.8866 20.0253 6.90886 20.0295 6.93112 20.0351C6.93391 20.0295 6.9353 20.0239 6.93669 20.0183C6.93809 20.0128 6.93948 20.0072 6.94227 20.0016C6.93165 19.9963 6.92048 19.9904 6.90892 19.9844L6.90864 19.9842L6.90844 19.9841C6.88372 19.9711 6.85726 19.9572 6.8308 19.9459C5.88893 19.5279 4.94148 19.1099 3.99404 18.6975C3.80445 18.6132 3.61265 18.5356 3.42004 18.4576C3.30689 18.4118 3.19346 18.3659 3.08003 18.3185C2.88497 18.2349 2.70105 18.1346 2.55615 17.9785C2.43911 17.8504 2.36666 17.6999 2.37223 17.5215C2.37781 17.3599 2.45583 17.2763 2.61745 17.2652C2.8571 17.2484 3.09118 17.2763 3.31411 17.3543C3.50583 17.4212 3.69755 17.4899 3.88927 17.5585C4.17685 17.6615 4.46442 17.7645 4.75199 17.8615C5.86106 18.2405 6.96456 18.6306 8.04576 19.0876C8.50125 19.28 8.95398 19.4807 9.40783 19.6819L9.40786 19.6819L9.40789 19.682L9.4091 19.6825C9.599 19.7667 9.78909 19.8509 9.97967 19.9347C10.1134 19.9905 10.2472 20.0518 10.3809 20.1131C10.3837 20.1075 10.3865 20.1033 10.3893 20.0991L10.3893 20.0991C10.3921 20.095 10.3949 20.0908 10.3977 20.0852L10.2806 20.0183C9.9689 19.8541 9.65717 19.6913 9.34544 19.5285L9.34416 19.5278C9.03212 19.3648 8.72007 19.2018 8.40802 19.0375C7.2265 18.4077 6.04498 17.7779 4.86346 17.1537C4.56495 16.9924 4.26222 16.8375 3.95917 16.6824C3.76997 16.5856 3.58064 16.4887 3.39213 16.3902C3.22493 16.301 3.06888 16.2007 2.91841 16.0892C2.61745 15.8607 2.45026 15.543 2.38895 15.1752C2.3165 14.7461 2.34994 14.3225 2.47255 13.9045C2.52271 13.7429 2.60073 13.6872 2.7735 13.676C2.96299 13.6649 3.13576 13.7095 3.30853 13.7763C3.45079 13.8317 3.59024 13.8926 3.72888 13.9532C3.78578 13.978 3.84253 14.0028 3.89929 14.0271C4.32504 14.204 4.75079 14.3824 5.17682 14.5609L5.17685 14.5609L5.17687 14.561L5.17695 14.561L5.17699 14.561C5.90532 14.8662 6.63447 15.1717 7.36583 15.4706C8.84831 16.0781 10.3364 16.6856 11.8244 17.2763C12.3929 17.5062 12.9707 17.7173 13.5486 17.9284L13.5486 17.9284C13.7412 17.9987 13.9339 18.0691 14.1261 18.1402C14.154 18.1485 14.1831 18.1568 14.2123 18.1652L14.2124 18.1652L14.2125 18.1652C14.2418 18.1736 14.271 18.182 14.2989 18.1903C14.2989 18.1792 14.3045 18.168 14.3101 18.1569C14.3011 18.1509 14.292 18.1445 14.2829 18.138C14.2582 18.1204 14.2327 18.1022 14.2042 18.09C13.658 17.8058 13.1132 17.5215 12.5684 17.2373C12.0236 16.9531 11.4789 16.6688 10.9327 16.3846C8.75356 15.2421 6.56886 14.0996 4.38416 12.9571C4.31003 12.92 4.23494 12.8849 4.15969 12.8497L4.15966 12.8496L4.15963 12.8496L4.15957 12.8496C4.05381 12.8001 3.94774 12.7505 3.84356 12.6951C3.65407 12.5948 3.46458 12.4889 3.29181 12.3663C3.19707 12.2994 3.11904 12.1991 3.04659 12.1044C3.00758 12.0486 2.99086 11.9706 2.97971 11.9037C2.96299 11.809 3.01315 11.7477 3.09675 11.7142C3.21936 11.6585 3.35312 11.6474 3.48687 11.6808C3.5685 11.7018 3.65037 11.7223 3.73233 11.7428L3.73238 11.7428L3.73244 11.7428C4.04217 11.8204 4.3532 11.8983 4.65725 12.0041C5.52272 12.3018 6.38536 12.608 7.24919 12.9147C7.59803 13.0385 7.94706 13.1624 8.29656 13.2859C8.66823 13.4161 9.03989 13.5473 9.41199 13.6787L9.41234 13.6788L9.41269 13.6789L9.41289 13.679L9.41308 13.679C9.91663 13.8568 10.4209 14.0348 10.9271 14.211C11.0383 14.2515 11.1586 14.2827 11.2756 14.3131L11.2756 14.3131L11.3117 14.3225C11.3343 14.3301 11.3595 14.3325 11.3855 14.335C11.3979 14.3362 11.4105 14.3374 11.4231 14.3392C11.4454 14.2724 11.4064 14.2501 11.373 14.2333L11.3384 14.2122C11.2485 14.157 11.1547 14.0994 11.0609 14.055C10.8894 13.9718 10.718 13.8883 10.5465 13.8047L10.5464 13.8047C9.94855 13.5134 9.34995 13.2218 8.74799 12.9404C8.1265 12.6479 7.49909 12.3643 6.87224 12.081L6.87213 12.0809C6.63895 11.9755 6.40585 11.8702 6.17316 11.7644C5.45422 11.4356 4.7297 11.1123 4.00518 10.7891C3.82684 10.7055 3.81569 10.6721 3.93831 10.516C3.94667 10.5049 3.95502 10.4951 3.96338 10.4854C3.97174 10.4756 3.9801 10.4658 3.98846 10.4547C4.09993 10.3098 4.09993 10.2931 3.97732 10.1593C3.94945 10.1287 3.9188 10.0994 3.88815 10.0701L3.88814 10.0701C3.85749 10.0409 3.82684 10.0116 3.79897 9.98098C3.73767 9.9141 3.74324 9.85836 3.82684 9.82493C3.88257 9.80263 3.94388 9.78591 4.00518 9.78591C4.03943 9.78684 4.07367 9.78761 4.10788 9.78838C4.27972 9.79225 4.45092 9.79611 4.61824 9.81935C4.99722 9.86951 5.37062 9.93082 5.7496 9.99769C5.85664 10.0173 5.96409 10.0365 6.07172 10.0557C6.36199 10.1076 6.65361 10.1596 6.94227 10.2206C7.28665 10.2908 7.63102 10.3671 7.9754 10.4433L7.97555 10.4433C8.20516 10.4942 8.43478 10.545 8.66439 10.594C8.74799 10.6107 8.83159 10.633 8.91519 10.6553C8.91797 10.6498 8.91937 10.6442 8.92076 10.6386C8.92215 10.633 8.92355 10.6275 8.92633 10.6219C8.88732 10.5996 8.84831 10.5829 8.8093 10.5662C8.34117 10.3711 7.87164 10.1761 7.40212 9.981C6.93255 9.78593 6.46299 9.59086 5.99482 9.39579C5.89131 9.34835 5.78446 9.30424 5.67945 9.26089L5.58798 9.22302C5.57829 9.21818 5.56861 9.2138 5.55906 9.20949L5.55905 9.20948C5.53563 9.1989 5.51303 9.18869 5.49323 9.17286C5.44865 9.13942 5.44307 9.10041 5.49323 9.06697C5.54896 9.02796 5.61584 8.99452 5.67715 8.98337C5.84434 8.94993 6.01154 8.92207 6.17874 8.90535C6.29912 8.89531 6.4195 8.8913 6.53988 8.88729C6.62013 8.88461 6.70039 8.88194 6.78064 8.87748C6.80851 8.87191 6.8308 8.86633 6.85867 8.84404C6.84879 8.84075 6.8389 8.83696 6.82888 8.83313L6.82887 8.83313L6.82887 8.83313L6.82887 8.83312C6.80497 8.82398 6.78026 8.81453 6.75278 8.8106C6.71043 8.80391 6.66807 8.797 6.62572 8.79009C6.45629 8.76245 6.28686 8.7348 6.11743 8.72143C5.98367 8.7114 5.84992 8.70738 5.71616 8.70337C5.62699 8.7007 5.53782 8.69802 5.44865 8.69356C5.3539 8.69356 5.25358 8.68799 5.15884 8.67127C5.03623 8.64898 4.9805 8.5821 4.9805 8.45949C4.98607 8.35917 4.99164 8.25885 5.01951 8.15853C5.06967 7.96347 5.16441 7.79628 5.2703 7.62908C5.38177 7.45631 5.53782 7.37828 5.74403 7.35042C6.15645 7.29469 6.55772 7.33927 6.95899 7.43959C8.49162 7.82971 10.0131 8.24213 11.5346 8.67684C13.0672 9.11713 14.5887 9.57413 16.1046 10.0757C17.8323 10.6442 19.5377 11.274 21.2153 11.9706C22.4692 12.4889 23.7065 13.0351 24.9326 13.6147C25.515 13.8906 26.0961 14.1679 26.6771 14.4452C27.2581 14.7224 27.8391 14.9997 28.4214 15.2755C28.6444 15.3814 28.8561 15.5096 29.0401 15.6712ZM20.0783 28.3782C20.0523 28.367 20.0263 28.3608 20.0003 28.3546L20.0002 28.3546C19.9872 28.3515 19.9742 28.3484 19.9613 28.3447C19.8926 28.3321 19.8239 28.3206 19.7554 28.3091C19.6127 28.2853 19.4708 28.2616 19.3315 28.2277C19.085 28.1686 18.8383 28.1098 18.5914 28.0509L18.5896 28.0505C17.7428 27.8486 16.8942 27.6464 16.0489 27.4307C14.9788 27.1576 13.931 26.8065 12.9 26.4108C10.9772 25.6696 9.13808 24.7389 7.35466 23.7078C6.4518 23.1895 5.53779 22.6991 4.60149 22.2588C4.50398 22.2118 4.40413 22.1742 4.30497 22.1369L4.30493 22.1369C4.25108 22.1166 4.19744 22.0964 4.14448 22.0749C4.07203 22.047 4.00515 22.0526 3.93828 22.086C3.83238 22.1362 3.80452 22.2421 3.87697 22.3312C3.93828 22.4093 4.0163 22.4817 4.0999 22.543C4.2448 22.6433 4.39528 22.7436 4.55133 22.8272C5.00833 23.078 5.46534 23.3233 5.92791 23.5685L5.98462 23.5987C6.56235 23.9064 7.14382 24.216 7.68348 24.5884C7.69174 24.5943 7.70051 24.5994 7.70936 24.6046C7.74225 24.624 7.77619 24.6439 7.78937 24.7054L7.74008 24.6905L7.74004 24.6905C7.68839 24.675 7.64251 24.6612 7.59988 24.6441L7.50494 24.607C7.27916 24.5189 7.05068 24.4297 6.83077 24.332C6.3634 24.1261 5.89885 23.9145 5.43511 23.7032C5.24632 23.6173 5.05766 23.5313 4.869 23.4459C4.81884 23.4236 4.76311 23.4013 4.70738 23.3901C4.61263 23.379 4.56248 23.4403 4.59034 23.5295C4.60706 23.5741 4.63493 23.6186 4.66837 23.6521C4.69138 23.6751 4.71827 23.6962 4.74561 23.7176L4.74563 23.7176C4.76463 23.7325 4.78384 23.7475 4.80212 23.7635C5.11219 24.0098 5.44837 24.2112 5.78624 24.4137L5.78648 24.4139C5.8615 24.4588 5.9366 24.5038 6.01151 24.5494L6.01172 24.5495C6.77518 25.0065 7.53864 25.4634 8.31325 25.9092C8.64763 26.1024 8.98697 26.2857 9.32631 26.469C9.49599 26.5607 9.66567 26.6523 9.83474 26.7452C9.84357 26.7496 9.85283 26.7536 9.86219 26.7576C9.90008 26.7739 9.93947 26.7908 9.95735 26.84C9.94063 26.8455 9.92391 26.8511 9.91276 26.8511C9.8626 26.8455 9.81802 26.84 9.76786 26.8288C9.41117 26.7508 9.06563 26.6226 8.73124 26.4833C7.83953 26.121 6.98125 25.6863 6.12855 25.2404C6.08675 25.2182 6.04356 25.1959 6.00036 25.1736L6.00002 25.1734C5.95694 25.1512 5.91387 25.1289 5.87218 25.1067C5.86661 25.1123 5.86103 25.1178 5.86103 25.1234C5.87218 25.1457 5.88333 25.168 5.90005 25.1847C5.96625 25.256 6.03142 25.3278 6.09635 25.3994L6.09651 25.3995L6.09652 25.3996C6.24468 25.5628 6.39157 25.7247 6.54654 25.8758C7.36023 26.6616 8.29096 27.2858 9.28856 27.8153C10.6763 28.5509 12.1365 29.0804 13.6858 29.3535C14.1317 29.4315 14.5775 29.4761 15.0234 29.4928C15.4302 29.5095 15.8315 29.4817 16.2328 29.4148C16.4446 29.3813 16.6508 29.3312 16.8681 29.2532C16.8522 29.2478 16.84 29.2425 16.8292 29.2378C16.8175 29.2326 16.8073 29.2282 16.7957 29.2253C16.2551 29.0804 15.7201 28.902 15.1962 28.6958C14.5162 28.4339 13.8586 28.1385 13.2177 27.7874C13.2138 27.7855 13.2098 27.7836 13.2056 27.7818C13.2035 27.7809 13.2013 27.7799 13.1992 27.779C13.1681 27.7655 13.1322 27.7499 13.1229 27.7038C13.1397 27.6982 13.1564 27.6927 13.1675 27.6982C13.1842 27.701 13.2023 27.7052 13.2204 27.7094L13.2205 27.7094L13.2206 27.7094C13.2386 27.7136 13.2567 27.7177 13.2734 27.7205C14.2153 28.0215 15.1683 28.2834 16.138 28.4841C16.601 28.5785 17.0677 28.6583 17.535 28.7384L17.5352 28.7384C17.6472 28.7576 17.7593 28.7768 17.8713 28.7962C18.0079 28.8184 18.1444 28.8366 18.2809 28.8547C18.4175 28.8728 18.554 28.8909 18.6906 28.9132C19.025 28.9689 19.3594 29.0135 19.6993 28.9801C19.7996 28.9689 19.9 28.9522 20.0003 28.9243C20.1006 28.8965 20.1786 28.8296 20.2288 28.7293C20.2957 28.5899 20.2399 28.445 20.0783 28.3782Z" fill="url(#paint0_linear_2024_10732)"/>
<defs>
<linearGradient id="paint0_linear_2024_10732" x1="21.6901" y1="3.83952" x2="10.488" y2="28.3617" gradientUnits="userSpaceOnUse">
<stop offset="0.182292" stop-color="#0098DA"/>
<stop offset="0.401042" stop-color="#00A859"/>
<stop offset="0.609375" stop-color="#A8CF45"/>
<stop offset="0.807292" stop-color="#F58634"/>
</linearGradient>
</defs>
</svg>
