<svg width="538" height="280" viewBox="0 0 538 280" fill="none" xmlns="http://www.w3.org/2000/svg">
<path d="M56.2524 207H441.252" stroke="#D9D9D9"/>
<path d="M56.2524 167H441.252" stroke="#D9D9D9"/>
<path d="M56.2524 127H441.252" stroke="#D9D9D9"/>
<path d="M56.2524 87H441.252" stroke="#D9D9D9"/>
<path d="M56.2524 47H441.252" stroke="#D9D9D9"/>
<path d="M56.2524 7H441.252" stroke="#D9D9D9"/>
<path d="M56.2524 248H441.252" stroke="#BFBFBF"/>
<path d="M56.5181 6.64111V247.531" stroke="#BFBFBF"/>
<mask id="mask0_137_5842" style="mask-type:luminance" maskUnits="userSpaceOnUse" x="56" y="7" width="385" height="241">
<path d="M440.36 7H56.2524V247.936H440.36V7Z" fill="white"/>
</mask>
<g mask="url(#mask0_137_5842)">
<path d="M59.6016 46.7851C59.6547 46.7851 59.8142 46.7851 59.9206 46.7851C60.0269 46.7851 60.1332 46.7851 60.2395 46.7851C60.3459 46.7851 60.4522 46.7851 60.5585 46.7851C60.6648 46.7851 60.7712 46.7851 60.8775 46.7851C60.9838 46.7851 61.0902 46.7851 61.2098 46.7851C61.3161 46.7851 61.4224 46.7851 61.5288 46.7851C61.6351 46.7851 61.7414 46.7851 61.8477 46.7851C61.9541 46.7851 62.0604 46.7851 62.1667 46.7851C62.2731 46.7851 62.3794 46.7851 62.4857 46.7851C62.592 46.7851 62.7515 46.7851 62.8047 46.7851C62.8578 46.7851 63.0174 46.7851 63.1237 46.7851C63.23 46.7851 63.3363 46.7851 63.4427 46.7851C63.549 46.7851 63.6553 46.7851 63.7616 46.7851C63.8812 46.7851 63.9876 46.7851 64.0939 46.7851C64.2002 46.7851 64.3066 46.7851 64.4129 46.7851C64.5192 46.7851 64.6255 46.7851 64.7319 46.7851C64.8382 46.7851 64.9445 46.7851 65.0508 46.7851C65.1572 46.7851 65.2635 46.7851 65.3698 46.7851C65.4761 46.7851 65.5825 46.7851 65.6888 46.7851C65.7952 46.7851 65.9546 46.7851 66.0078 46.7851C66.061 46.7851 66.2204 46.7851 66.3268 46.7851C66.4331 46.7851 66.5527 46.7851 66.659 46.7851C66.7654 46.7851 66.8717 46.7851 66.978 46.7851C67.0844 46.7851 67.1907 46.7851 67.297 46.7851C67.4033 46.7851 67.5097 46.7851 67.616 46.7851C67.7223 46.7851 67.8287 46.7851 67.935 46.7851C68.0413 46.7851 68.1476 46.7851 68.254 46.7851C68.3603 46.7851 68.4666 46.7851 68.5729 46.7851C68.6793 46.7851 68.7856 46.7851 68.8919 46.7851C68.9983 46.7851 69.1578 46.7851 69.2242 46.7851C69.2774 46.7851 69.4369 46.7851 69.5432 46.7851C69.6495 46.7851 69.7558 46.7851 69.8621 46.7851C69.9685 46.7851 70.0748 46.7851 70.1812 46.7851C70.2875 46.7851 70.3938 46.7851 70.5001 46.7851C70.6065 46.7851 70.7128 46.7851 70.8191 46.7851C70.9254 46.7851 71.0318 46.7851 71.1381 46.7851C71.2444 46.7851 71.3507 46.7851 71.4571 46.7851C71.5634 46.7851 71.6697 46.7851 71.776 46.7851C71.8957 46.7851 72.002 46.7851 72.1083 46.7851C72.2146 46.7851 72.3742 46.7851 72.4273 46.7851C72.4805 46.7851 72.64 46.7851 72.7463 46.7851C72.8526 46.7851 72.9589 46.7851 73.0653 46.7851C73.1716 46.7851 73.2779 46.7851 73.3843 46.7851C73.4906 46.7851 73.5969 46.7851 73.7032 46.7851C73.8096 46.7851 73.9159 46.7851 74.0222 46.7851C74.1285 46.7851 74.2349 46.7851 74.3412 46.7851C74.4475 46.7851 74.5671 46.7851 74.6735 46.7851C74.7798 46.7851 74.8861 46.7851 74.9925 46.7851C75.0988 46.7851 75.2051 46.7851 75.3114 46.7851C75.4178 46.7851 75.5772 46.7851 75.6304 46.7851C75.6836 46.7851 75.8431 46.7851 75.9494 46.7851C76.0557 46.7851 76.1621 46.7851 76.2684 46.7851C76.3747 46.7851 76.481 46.7851 76.5873 46.7851C76.6937 46.7851 76.8 46.7851 76.9064 46.7851C77.0127 46.7851 77.119 46.7851 77.2386 46.7851C77.345 46.7851 77.4513 46.7851 77.5576 46.7851C77.6639 46.7851 77.7702 46.7851 77.8766 46.7851C77.9829 46.7851 78.0892 46.7851 78.1956 46.7851C78.3019 46.7851 78.4082 46.7851 78.5145 46.7851C78.6209 46.7851 78.7804 46.7851 78.8335 46.7851C78.8867 46.7851 79.0462 46.7851 79.1525 46.7851C79.2589 46.7851 79.3652 46.7851 79.4715 46.7851C79.5778 46.7851 79.6841 46.7851 79.7905 46.7851C79.9101 46.7851 80.0164 46.7851 80.1227 46.7851C80.2291 46.7851 80.3354 46.7851 80.4417 46.7851C80.5481 46.7851 80.6544 46.7851 80.7607 46.7851C80.867 46.7851 80.9734 46.7851 81.0797 46.7851C81.186 46.7851 81.2924 46.7851 81.3987 46.7851C81.505 46.7851 81.6113 46.7851 81.7177 46.7851C81.824 46.7851 81.9835 46.7851 82.0366 46.7851C82.0898 46.7851 82.2493 46.7851 82.3556 46.7851C82.462 46.7851 82.5683 46.7851 82.6879 46.7851C82.7942 46.7851 82.9006 46.7851 83.0069 46.7851C83.1132 46.7851 83.2195 46.7851 83.3259 46.7851C83.4322 46.7851 83.5385 46.7851 83.6448 46.7851C83.7511 46.7851 83.8575 46.7851 83.9638 46.7851C84.0702 46.7851 84.1765 46.7851 84.2828 46.7851C84.3891 46.7851 84.4954 46.7851 84.6018 46.7851C84.7081 46.7851 84.8144 46.7851 84.9208 46.7851C85.0271 46.7851 85.1866 46.7851 85.253 46.7851C85.3062 46.7851 85.4657 46.7851 85.572 46.7851C85.6783 46.7851 85.7847 46.7851 85.891 46.7851C85.9973 46.7851 86.1037 46.7851 86.21 46.7851C86.3163 46.7851 86.4226 46.7851 86.529 46.7851C86.6353 46.7851 86.7416 46.7851 86.8479 46.7851C86.9543 46.7851 87.0606 46.7851 87.1669 46.7851C87.2733 46.7851 87.3796 46.7851 87.4859 46.7851C87.5922 46.7851 87.6986 46.7851 87.8049 46.7851C87.9112 46.7851 88.0308 46.7851 88.1372 46.7851C88.2435 46.7851 88.403 46.7851 88.4562 46.7851C88.5093 46.7851 88.6688 46.7851 88.7751 46.7851C88.8815 46.7851 88.9878 46.7851 89.0941 46.7851C89.2004 46.7851 89.3068 46.7851 89.4131 46.7851C89.5194 46.7851 89.6258 46.7851 89.7321 46.7851C89.8384 46.7851 89.9447 46.7851 90.0511 46.7851C90.1574 46.7851 90.2637 46.7851 90.3701 46.7851C90.4764 46.7851 90.5827 46.7851 90.7023 46.7851C90.8087 46.7851 90.915 46.7851 91.0213 46.7851C91.1276 46.7851 91.2339 46.7851 91.3403 46.7851C91.4466 46.7851 91.6061 46.7851 91.6593 46.7851C91.7124 46.7851 91.8719 46.7851 91.9782 46.7851C92.0846 46.7851 92.1909 46.7851 92.2972 46.7851C92.4035 46.7851 92.5099 46.7851 92.6162 46.7736C92.7225 46.7736 92.8289 46.7736 92.9352 46.7736C93.0415 46.7736 93.1478 46.7736 93.2542 46.7621C93.3738 46.7621 93.4801 46.7621 93.5864 46.7621C93.6928 46.7621 93.7991 46.7621 93.9054 46.7621C94.0117 46.7621 94.1181 46.7621 94.2244 46.7621C94.3307 46.7736 94.4371 46.7736 94.5434 46.7736C94.6497 46.7736 94.8092 46.7851 94.8624 46.7851C94.9155 46.7966 95.075 46.808 95.1814 46.808C95.2877 46.8195 95.394 46.831 95.5003 46.8424C95.6067 46.8539 95.713 46.8769 95.8193 46.8884C95.9256 46.8998 96.0452 46.9228 96.1516 46.9342C96.2579 46.9457 96.3643 46.9686 96.4706 46.9801C96.5769 47.0031 96.6832 47.0145 96.7896 47.026C96.8959 47.049 97.0022 47.0604 97.1085 47.0719C97.2148 47.0834 97.3212 47.0949 97.4275 47.1063C97.5339 47.1178 97.6402 47.1178 97.7465 47.1293C97.8528 47.1293 98.0123 47.1293 98.0655 47.1293C98.1186 47.1293 98.2782 47.1178 98.3845 47.1063C98.4908 47.0834 98.5971 47.0604 98.7168 47.026C98.8231 46.9916 98.9294 46.9572 99.0357 46.9228C99.142 46.8883 99.2484 46.8425 99.3547 46.7966C99.461 46.7621 99.5674 46.7162 99.6737 46.6818C99.78 46.6474 99.8863 46.613 99.9927 46.59C100.099 46.5671 100.205 46.5442 100.312 46.5442C100.418 46.5327 100.524 46.5327 100.631 46.5442C100.737 46.5556 100.843 46.5786 100.95 46.6245C101.056 46.6589 101.215 46.7621 101.269 46.7851C101.335 46.831 101.495 46.9572 101.601 47.0604C101.707 47.1637 101.813 47.2899 101.92 47.4161C102.026 47.5538 102.133 47.6915 102.239 47.8521C102.345 48.0012 102.451 48.1619 102.558 48.334C102.664 48.5061 102.77 48.6896 102.877 48.8617C102.983 49.0453 103.089 49.2289 103.196 49.4124C103.302 49.596 103.408 49.791 103.515 49.9746C103.621 50.1582 103.727 50.3418 103.834 50.5253C103.94 50.7089 104.06 50.881 104.166 51.0531C104.272 51.2252 104.432 51.4546 104.485 51.535C104.538 51.6153 104.698 51.8447 104.804 51.9939C104.91 52.1545 105.017 52.3037 105.123 52.4528C105.229 52.602 105.336 52.7626 105.442 52.9118C105.548 53.0609 105.655 53.2101 105.761 53.3592C105.867 53.5084 105.974 53.6575 106.08 53.8067C106.186 53.9558 106.293 54.105 106.399 54.2541C106.505 54.4033 106.612 54.5409 106.731 54.6901C106.837 54.8392 106.944 54.9884 107.05 55.1261C107.156 55.2752 107.263 55.4244 107.369 55.562C107.475 55.7112 107.635 55.9292 107.688 55.998C107.741 56.0783 107.901 56.3078 108.007 56.4799C108.113 56.652 108.22 56.847 108.326 57.0421C108.432 57.2256 108.539 57.4322 108.645 57.6387C108.751 57.8337 108.858 58.0402 108.964 58.2468C109.07 58.4418 109.177 58.6368 109.283 58.8204C109.403 59.004 109.509 59.1875 109.615 59.3482C109.722 59.5088 109.828 59.658 109.934 59.7727C110.041 59.8989 110.147 60.0022 110.253 60.0825C110.36 60.1513 110.466 60.2087 110.572 60.2201C110.679 60.2316 110.838 60.1742 110.891 60.1742C110.944 60.1169 111.104 60.0136 111.21 59.8759C111.317 59.7383 111.423 59.5547 111.529 59.3367C111.635 59.1302 111.742 58.8893 111.848 58.6254C111.954 58.3615 112.074 58.0747 112.18 57.7764C112.287 57.4781 112.393 57.1683 112.499 56.847C112.606 56.5373 112.712 56.2045 112.818 55.8948C112.925 55.5735 113.031 55.2523 113.137 54.954C113.244 54.6557 113.35 54.3574 113.456 54.0935C113.563 53.8181 113.669 53.5657 113.775 53.3477C113.882 53.1412 114.041 52.8888 114.094 52.797C114.147 52.7282 114.294 52.5331 114.4 52.4299C114.506 52.3266 114.613 52.2463 114.719 52.166C114.825 52.0857 114.932 52.0283 115.038 51.9824C115.144 51.925 115.251 51.8792 115.37 51.8447C115.477 51.8103 115.596 51.7759 115.703 51.753C115.809 51.7185 115.928 51.6956 116.035 51.6727C116.141 51.6382 116.261 51.6153 116.367 51.5809C116.473 51.5464 116.58 51.512 116.686 51.4661C116.792 51.4202 116.899 51.3743 117.005 51.3055C117.111 51.2481 117.258 51.1219 117.297 51.076C117.364 51.0187 117.523 50.8695 117.63 50.7433C117.736 50.6286 117.842 50.4909 117.949 50.3418C118.055 50.2041 118.161 50.0435 118.268 49.8943C118.374 49.7337 118.48 49.5731 118.587 49.4124C118.693 49.2403 118.799 49.0797 118.906 48.9191C119.012 48.747 119.118 48.5864 119.225 48.4257C119.331 48.2651 119.437 48.116 119.544 47.9668C119.65 47.8177 119.756 47.68 119.863 47.5538C119.969 47.4276 120.089 47.3129 120.195 47.2096C120.301 47.1063 120.461 46.9916 120.514 46.9457C120.567 46.9113 120.726 46.808 120.833 46.7621C120.939 46.7163 121.045 46.6818 121.152 46.6589C121.258 46.6245 121.364 46.613 121.471 46.6015C121.577 46.59 121.683 46.59 121.79 46.59C121.896 46.59 122.002 46.6015 122.109 46.613C122.215 46.613 122.321 46.6359 122.428 46.6474C122.534 46.6589 122.64 46.6818 122.76 46.6933C122.866 46.7162 122.973 46.7277 123.079 46.7507C123.185 46.7621 123.292 46.7736 123.398 46.7851C123.504 46.7851 123.664 46.7851 123.717 46.7851C123.77 46.7851 123.93 46.7851 124.036 46.7851C124.142 46.7851 124.249 46.7851 124.355 46.7736C124.461 46.7736 124.568 46.7736 124.674 46.7736C124.78 46.7736 124.887 46.7736 124.993 46.7736C125.099 46.7736 125.206 46.7736 125.312 46.7736C125.431 46.7851 125.538 46.7851 125.644 46.7851C125.75 46.7851 125.857 46.7851 125.963 46.7851C126.069 46.7851 126.176 46.7851 126.282 46.7851C126.388 46.7851 126.495 46.7851 126.601 46.7851C126.707 46.7851 126.867 46.7851 126.92 46.7851C126.973 46.7851 127.133 46.7851 127.239 46.7851C127.345 46.7851 127.452 46.7851 127.558 46.7851C127.664 46.7851 127.771 46.7851 127.877 46.7851C127.983 46.7851 128.103 46.7851 128.209 46.7851C128.316 46.7851 128.422 46.7851 128.528 46.7851C128.635 46.7851 128.741 46.7851 128.847 46.7851C128.954 46.7851 129.06 46.7851 129.166 46.7851C129.273 46.7851 129.379 46.7851 129.485 46.7851C129.592 46.7851 129.698 46.7851 129.804 46.7851C129.911 46.7851 130.07 46.7851 130.123 46.7851C130.176 46.7851 130.336 46.7851 130.442 46.7851C130.548 46.7851 130.655 46.7851 130.774 46.7851C130.881 46.7851 130.987 46.7851 131.093 46.7851C131.2 46.7851 131.306 46.7851 131.412 46.7851C131.519 46.7851 131.625 46.7851 131.731 46.7851C131.838 46.7851 131.944 46.7851 132.05 46.7851C132.157 46.7851 132.263 46.7851 132.369 46.7851C132.476 46.7851 132.582 46.7851 132.688 46.7851C132.795 46.7851 132.901 46.7851 133.007 46.7851C133.114 46.7851 133.273 46.7851 133.326 46.7851C133.379 46.7851 133.552 46.7851 133.659 46.7851C133.765 46.7851 133.871 46.7851 133.978 46.7851C134.084 46.7851 134.19 46.7851 134.297 46.7851C134.403 46.7851 134.509 46.7851 134.615 46.7851C134.722 46.7851 134.828 46.7851 134.934 46.7851C135.041 46.7851 135.147 46.7851 135.253 46.7851C135.36 46.7851 135.466 46.7851 135.572 46.7851C135.679 46.7851 135.785 46.7851 135.891 46.7851C135.998 46.7851 136.117 46.7851 136.224 46.7851C136.33 46.7851 136.49 46.7851 136.543 46.7851C136.596 46.7851 136.755 46.7851 136.862 46.7851C136.968 46.7851 137.074 46.7851 137.181 46.7851C137.287 46.7851 137.393 46.7851 137.5 46.7851C137.606 46.7851 137.712 46.7851 137.819 46.7851C137.925 46.7851 138.031 46.7851 138.138 46.7851C138.244 46.7851 138.35 46.7851 138.457 46.7851C138.563 46.7851 138.669 46.7851 138.789 46.7851C138.895 46.7851 139.001 46.7851 139.108 46.7851C139.214 46.7851 139.32 46.7851 139.427 46.7851C139.533 46.7851 139.693 46.7851 139.746 46.7851C139.799 46.7851 139.958 46.7851 140.065 46.7851C140.171 46.7851 140.277 46.7851 140.384 46.7851C140.49 46.7851 140.596 46.7851 140.703 46.7851C140.809 46.7851 140.915 46.7851 141.022 46.7851C141.128 46.7851 141.234 46.7851 141.341 46.7851C141.46 46.7851 141.567 46.7851 141.673 46.7851C141.779 46.7851 141.886 46.7851 141.992 46.7851C142.098 46.7851 142.205 46.7851 142.311 46.7851C142.417 46.7851 142.524 46.7851 142.63 46.7851C142.736 46.7851 142.896 46.7851 142.949 46.7851C143.002 46.7851 143.162 46.7851 143.268 46.7851C143.374 46.7851 143.481 46.7851 143.587 46.7851C143.693 46.7851 143.8 46.7851 143.906 46.7851C144.012 46.7851 144.132 46.7851 144.238 46.7851C144.344 46.7851 144.451 46.7851 144.557 46.7851C144.663 46.7851 144.77 46.7851 144.876 46.7851C144.982 46.7851 145.089 46.7851 145.195 46.7851C145.301 46.7851 145.408 46.7851 145.514 46.7851C145.62 46.7851 145.727 46.7851 145.833 46.7851C145.939 46.7851 146.099 46.7851 146.152 46.7851C146.205 46.7851 146.365 46.7851 146.471 46.7851C146.577 46.7851 146.684 46.7851 146.803 46.7851C146.91 46.7851 147.016 46.7851 147.122 46.7851C147.229 46.7851 147.335 46.7851 147.441 46.7851C147.548 46.7851 147.654 46.7851 147.76 46.7851C147.867 46.7851 147.973 46.7851 148.079 46.7851C148.186 46.7851 148.292 46.7851 148.398 46.7851C148.504 46.7851 148.611 46.7851 148.717 46.7851C148.823 46.7851 148.93 46.7851 149.036 46.7851C149.142 46.7851 149.302 46.7851 149.355 46.7851C149.408 46.7851 149.581 46.7851 149.687 46.7851C149.794 46.7736 149.9 46.7621 150.006 46.7621C150.113 46.7507 150.219 46.7392 150.325 46.7277C150.432 46.7162 150.538 46.7048 150.644 46.6933C150.751 46.6818 150.857 46.6703 150.963 46.6589C151.07 46.6589 151.176 46.6474 151.282 46.6474C151.389 46.6359 151.495 46.6359 151.601 46.6359C151.708 46.6474 151.814 46.6474 151.92 46.6589C152.027 46.6703 152.146 46.6818 152.253 46.7048C152.359 46.7277 152.518 46.7736 152.572 46.7851C152.611 46.7966 152.718 46.831 152.811 46.8539C152.89 46.8769 152.997 46.8998 153.103 46.9228C153.209 46.9572 153.316 46.9801 153.435 47.0145C153.555 47.049 153.675 47.0834 153.794 47.1293C153.914 47.1752 154.047 47.2211 154.166 47.2784C154.299 47.3358 154.419 47.3932 154.539 47.462C154.671 47.5423 154.791 47.6111 154.911 47.7029C155.017 47.7947 155.137 47.8865 155.243 48.0012C155.349 48.116 155.442 48.2307 155.535 48.3684C155.628 48.5061 155.735 48.7355 155.775 48.8044C155.828 48.9535 155.987 49.3436 156.094 49.6534C156.2 49.9631 156.306 50.3073 156.413 50.6745C156.519 51.0416 156.625 51.4317 156.732 51.8447C156.838 52.2578 156.944 52.6823 157.051 53.1297C157.157 53.5772 157.263 54.0361 157.37 54.5065C157.476 54.9769 157.595 55.4588 157.702 55.9521C157.808 56.434 157.914 56.9273 158.021 57.4207C158.127 57.914 158.233 58.4074 158.34 58.8893C158.446 59.3826 158.552 59.8645 158.659 60.3463C158.765 60.8167 158.925 61.5051 158.978 61.7346C159.031 61.9641 159.19 62.6525 159.297 63.1114C159.403 63.5703 159.509 64.0292 159.616 64.4996C159.722 64.97 159.828 65.4404 159.935 65.9108C160.041 66.3812 160.147 66.8631 160.267 67.3335C160.373 67.8154 160.48 68.2858 160.586 68.7676C160.692 69.2495 160.799 69.7314 160.905 70.2132C161.011 70.6951 161.118 71.177 161.224 71.6589C161.33 72.1407 161.437 72.6226 161.543 73.1045C161.649 73.5864 161.756 74.0568 161.862 74.5386C161.968 75.0205 162.128 75.7318 162.181 75.9728C162.234 76.2137 162.394 76.9365 162.5 77.4413C162.606 77.9462 162.712 78.4625 162.819 78.9902C162.938 79.518 163.045 80.0457 163.151 80.5735C163.257 81.1127 163.364 81.652 163.47 82.1797C163.576 82.7075 163.683 83.2353 163.789 83.7516C163.895 84.2679 164.002 84.7841 164.108 85.2775C164.214 85.7823 164.321 86.2642 164.427 86.7231C164.533 87.1935 164.64 87.641 164.746 88.054C164.852 88.4785 164.959 88.8801 165.065 89.2472C165.171 89.6144 165.331 90.0847 165.384 90.2568C165.437 90.3601 165.557 90.6813 165.65 90.8649C165.743 91.0485 165.836 91.1976 165.942 91.3353C166.035 91.473 166.142 91.5877 166.261 91.7025C166.367 91.8057 166.474 91.8975 166.593 91.9893C166.7 92.0811 166.819 92.1614 166.926 92.2532C167.045 92.3335 167.165 92.4138 167.285 92.5056C167.391 92.5974 167.51 92.6891 167.63 92.7924C167.736 92.8957 167.856 93.0104 167.962 93.1481C168.069 93.2858 168.188 93.4349 168.295 93.607C168.401 93.7791 168.547 94.1003 168.6 94.2036C168.654 94.3413 168.813 94.7428 168.919 95.0526C169.026 95.3624 169.132 95.7066 169.238 96.0737C169.345 96.4409 169.451 96.831 169.557 97.2325C169.664 97.6341 169.77 98.0586 169.876 98.4716C169.983 98.8961 170.089 99.3321 170.195 99.7566C170.302 100.181 170.408 100.606 170.514 101.019C170.621 101.432 170.727 101.845 170.833 102.235C170.953 102.613 171.059 102.992 171.165 103.336C171.272 103.68 171.378 104.002 171.485 104.289C171.591 104.575 171.75 104.92 171.803 105.046C171.843 105.115 171.963 105.344 172.056 105.47C172.149 105.596 172.255 105.723 172.362 105.826C172.468 105.941 172.574 106.032 172.694 106.124C172.8 106.216 172.92 106.285 173.04 106.365C173.159 106.434 173.279 106.491 173.398 106.549C173.531 106.606 173.651 106.652 173.771 106.698C173.89 106.732 174.01 106.767 174.116 106.801C174.236 106.836 174.342 106.858 174.448 106.881C174.555 106.893 174.661 106.916 174.754 106.927C174.847 106.939 174.967 106.95 175.007 106.962C175.06 106.962 175.219 106.973 175.326 106.962C175.432 106.95 175.538 106.927 175.645 106.893C175.751 106.87 175.857 106.824 175.964 106.79C176.07 106.744 176.176 106.686 176.296 106.64C176.402 106.583 176.508 106.526 176.615 106.468C176.721 106.411 176.827 106.342 176.934 106.285C177.04 106.227 177.146 106.17 177.253 106.113C177.359 106.055 177.465 106.009 177.572 105.964C177.678 105.918 177.784 105.872 177.891 105.837C177.997 105.803 178.157 105.78 178.21 105.757C178.263 105.757 178.422 105.734 178.529 105.711C178.635 105.7 178.741 105.688 178.848 105.677C178.967 105.665 179.074 105.654 179.18 105.654C179.286 105.642 179.393 105.642 179.499 105.642C179.605 105.642 179.712 105.642 179.818 105.642C179.924 105.642 180.031 105.654 180.137 105.665C180.243 105.677 180.35 105.688 180.456 105.711C180.562 105.723 180.669 105.746 180.775 105.769C180.881 105.803 180.987 105.826 181.094 105.86C181.2 105.895 181.36 105.964 181.413 105.975C181.466 106.009 181.639 106.078 181.745 106.124C181.851 106.182 181.958 106.239 182.064 106.296C182.17 106.354 182.277 106.423 182.383 106.491C182.489 106.56 182.596 106.629 182.702 106.709C182.808 106.79 182.915 106.87 183.021 106.95C183.127 107.031 183.234 107.122 183.34 107.203C183.446 107.294 183.553 107.386 183.659 107.49C183.765 107.581 183.872 107.685 183.978 107.788C184.084 107.88 184.191 107.994 184.31 108.098C184.417 108.201 184.576 108.373 184.629 108.43C184.682 108.488 184.842 108.66 184.948 108.786C185.054 108.912 185.161 109.05 185.267 109.188C185.374 109.325 185.48 109.463 185.586 109.612C185.692 109.761 185.799 109.91 185.905 110.06C186.011 110.22 186.118 110.369 186.224 110.53C186.33 110.679 186.437 110.84 186.543 111C186.649 111.149 186.756 111.31 186.862 111.459C186.982 111.608 187.088 111.758 187.194 111.907C187.301 112.056 187.407 112.205 187.513 112.343C187.62 112.48 187.779 112.675 187.832 112.744C187.885 112.802 188.045 112.985 188.151 113.1C188.258 113.215 188.364 113.329 188.47 113.433C188.577 113.547 188.683 113.651 188.789 113.742C188.896 113.846 189.002 113.949 189.108 114.041C189.215 114.144 189.321 114.236 189.427 114.339C189.534 114.442 189.653 114.534 189.76 114.637C189.866 114.741 189.972 114.844 190.078 114.959C190.185 115.062 190.291 115.177 190.397 115.291C190.504 115.417 190.61 115.532 190.716 115.67C190.823 115.796 190.982 116.014 191.035 116.083C191.089 116.163 191.248 116.381 191.354 116.542C191.461 116.702 191.567 116.875 191.673 117.047C191.78 117.219 191.886 117.391 191.992 117.574C192.099 117.758 192.205 117.942 192.325 118.125C192.431 118.32 192.537 118.504 192.644 118.699C192.75 118.894 192.856 119.089 192.963 119.284C193.069 119.479 193.175 119.674 193.282 119.869C193.388 120.064 193.494 120.259 193.601 120.443C193.707 120.638 193.813 120.833 193.92 121.016C194.026 121.211 194.185 121.487 194.239 121.579C194.292 121.67 194.451 121.946 194.558 122.141C194.664 122.324 194.77 122.519 194.876 122.714C194.996 122.909 195.102 123.104 195.209 123.311C195.315 123.506 195.421 123.701 195.528 123.896C195.634 124.091 195.74 124.298 195.847 124.481C195.953 124.676 196.059 124.871 196.166 125.055C196.272 125.25 196.378 125.434 196.485 125.606C196.591 125.789 196.697 125.961 196.804 126.133C196.91 126.294 197.016 126.455 197.123 126.604C197.229 126.764 197.388 126.971 197.442 127.04C197.495 127.097 197.668 127.292 197.774 127.407C197.88 127.522 197.987 127.625 198.093 127.717C198.199 127.82 198.306 127.9 198.412 127.981C198.518 128.072 198.625 128.141 198.731 128.221C198.837 128.29 198.944 128.359 199.05 128.428C199.156 128.497 199.262 128.566 199.369 128.635C199.475 128.703 199.582 128.784 199.688 128.853C199.794 128.933 199.9 129.002 200.007 129.093C200.113 129.174 200.219 129.254 200.339 129.357C200.445 129.449 200.605 129.621 200.658 129.679C200.711 129.736 200.871 129.908 200.977 130.046C201.083 130.172 201.19 130.321 201.296 130.459C201.402 130.608 201.509 130.769 201.615 130.918C201.721 131.067 201.828 131.227 201.934 131.388C202.04 131.549 202.147 131.709 202.253 131.87C202.359 132.031 202.466 132.191 202.572 132.352C202.678 132.501 202.785 132.662 202.891 132.799C203.011 132.948 203.117 133.098 203.223 133.224C203.33 133.361 203.436 133.488 203.542 133.602C203.649 133.717 203.808 133.866 203.861 133.924C203.914 133.97 204.074 134.107 204.18 134.188C204.286 134.268 204.393 134.348 204.499 134.417C204.605 134.486 204.712 134.555 204.818 134.612C204.924 134.681 205.031 134.727 205.137 134.784C205.243 134.83 205.35 134.887 205.456 134.922C205.562 134.968 205.682 135.014 205.788 135.048C205.895 135.082 206.001 135.117 206.107 135.151C206.214 135.186 206.32 135.209 206.426 135.243C206.533 135.266 206.639 135.289 206.745 135.312C206.852 135.346 207.011 135.381 207.064 135.392C207.117 135.404 207.277 135.427 207.383 135.438C207.49 135.45 207.596 135.461 207.702 135.461C207.809 135.473 207.915 135.461 208.021 135.461C208.128 135.461 208.234 135.45 208.353 135.438C208.46 135.438 208.566 135.427 208.672 135.415C208.779 135.404 208.885 135.392 208.991 135.381C209.098 135.369 209.204 135.358 209.31 135.346C209.417 135.335 209.523 135.323 209.629 135.323C209.736 135.323 209.842 135.312 209.948 135.323C210.055 135.323 210.214 135.335 210.267 135.335C210.321 135.346 210.48 135.369 210.586 135.381C210.693 135.392 210.799 135.415 210.905 135.438C211.025 135.461 211.131 135.484 211.238 135.507C211.344 135.541 211.45 135.564 211.557 135.599C211.663 135.622 211.769 135.656 211.876 135.679C211.982 135.713 212.088 135.736 212.195 135.771C212.301 135.794 212.407 135.828 212.514 135.851C212.62 135.886 212.726 135.908 212.833 135.931C212.939 135.954 213.045 135.977 213.151 136C213.258 136.023 213.417 136.046 213.471 136.058C213.524 136.058 213.696 136.081 213.803 136.104C213.909 136.115 214.015 136.126 214.122 136.149C214.228 136.161 214.334 136.172 214.441 136.184C214.547 136.195 214.653 136.207 214.76 136.218C214.866 136.23 214.972 136.241 215.079 136.253C215.185 136.264 215.291 136.276 215.398 136.276C215.504 136.287 215.61 136.287 215.717 136.287C215.823 136.287 215.929 136.287 216.036 136.287C216.142 136.287 216.248 136.287 216.368 136.276C216.474 136.276 216.634 136.253 216.687 136.253C216.74 136.241 216.9 136.218 217.006 136.195C217.112 136.172 217.219 136.138 217.325 136.115C217.431 136.081 217.537 136.035 217.644 136C217.75 135.966 217.857 135.92 217.963 135.874C218.069 135.84 218.175 135.794 218.282 135.748C218.388 135.702 218.494 135.668 218.601 135.622C218.707 135.587 218.813 135.541 218.92 135.518C219.039 135.484 219.146 135.45 219.252 135.427C219.358 135.404 219.465 135.381 219.571 135.369C219.677 135.346 219.837 135.346 219.89 135.346C219.943 135.346 220.103 135.358 220.209 135.369C220.315 135.381 220.422 135.404 220.528 135.427C220.634 135.45 220.741 135.484 220.847 135.518C220.953 135.553 221.06 135.587 221.166 135.633C221.272 135.668 221.379 135.713 221.485 135.759C221.591 135.805 221.698 135.851 221.817 135.886C221.924 135.931 222.03 135.977 222.136 136.023C222.242 136.058 222.349 136.104 222.455 136.138C222.561 136.172 222.668 136.207 222.774 136.241C222.88 136.264 223.04 136.299 223.093 136.31C223.146 136.322 223.306 136.344 223.412 136.367C223.518 136.379 223.625 136.402 223.731 136.413C223.837 136.436 223.944 136.448 224.05 136.459C224.156 136.471 224.263 136.482 224.382 136.494C224.489 136.505 224.595 136.517 224.701 136.528C224.808 136.54 224.914 136.54 225.02 136.551C225.127 136.551 225.233 136.551 225.339 136.551C225.446 136.551 225.552 136.551 225.658 136.551C225.765 136.54 225.871 136.54 225.977 136.528C226.084 136.517 226.243 136.505 226.296 136.494C226.349 136.494 226.509 136.471 226.615 136.448C226.722 136.425 226.828 136.402 226.934 136.379C227.054 136.356 227.16 136.322 227.266 136.299C227.373 136.264 227.479 136.23 227.585 136.195C227.692 136.172 227.798 136.126 227.904 136.092C228.011 136.058 228.117 136.023 228.223 135.977C228.33 135.943 228.436 135.897 228.542 135.863C228.649 135.817 228.755 135.782 228.861 135.736C228.968 135.702 229.074 135.656 229.18 135.622C229.287 135.576 229.446 135.518 229.499 135.495C229.553 135.473 229.712 135.415 229.832 135.369C229.938 135.335 230.044 135.289 230.151 135.255C230.257 135.209 230.363 135.163 230.47 135.117C230.576 135.082 230.682 135.037 230.789 134.991C230.895 134.945 231.001 134.899 231.108 134.853C231.214 134.807 231.32 134.761 231.426 134.715C231.533 134.669 231.639 134.623 231.746 134.566C231.852 134.52 231.958 134.474 232.064 134.417C232.171 134.371 232.277 134.325 232.383 134.268C232.503 134.222 232.663 134.142 232.716 134.119C232.769 134.096 232.928 134.015 233.035 133.97C233.141 133.912 233.247 133.866 233.354 133.82C233.46 133.774 233.566 133.729 233.673 133.683C233.779 133.637 233.885 133.591 233.992 133.534C234.098 133.488 234.204 133.442 234.311 133.384C234.417 133.338 234.523 133.281 234.63 133.224C234.736 133.166 234.842 133.109 234.949 133.052C235.068 132.983 235.175 132.914 235.281 132.845C235.387 132.776 235.494 132.707 235.6 132.627C235.706 132.547 235.866 132.409 235.919 132.363C235.959 132.329 236.078 132.226 236.171 132.157C236.264 132.088 236.371 132.008 236.477 131.927C236.583 131.847 236.69 131.767 236.809 131.686C236.916 131.595 237.035 131.503 237.155 131.4C237.274 131.296 237.394 131.193 237.514 131.078C237.633 130.964 237.766 130.837 237.886 130.711C237.992 130.585 238.112 130.436 238.231 130.287C238.351 130.138 238.457 129.977 238.564 129.805C238.67 129.633 238.763 129.449 238.856 129.254C238.949 129.059 239.082 128.738 239.122 128.635C239.175 128.451 239.335 127.969 239.441 127.579C239.547 127.177 239.654 126.718 239.76 126.248C239.866 125.778 239.973 125.261 240.079 124.734C240.185 124.206 240.292 123.644 240.398 123.082C240.517 122.519 240.624 121.934 240.73 121.372C240.836 120.798 240.943 120.225 241.049 119.663C241.155 119.112 241.262 118.561 241.368 118.045C241.474 117.529 241.581 117.024 241.687 116.565C241.793 116.106 241.9 115.67 242.006 115.291C242.112 114.913 242.272 114.477 242.325 114.305C242.365 114.236 242.471 113.995 242.551 113.857C242.644 113.719 242.737 113.605 242.843 113.49C242.95 113.387 243.069 113.283 243.189 113.203C243.295 113.111 243.428 113.043 243.548 112.974C243.667 112.905 243.8 112.847 243.933 112.79C244.053 112.733 244.186 112.687 244.319 112.641C244.438 112.595 244.558 112.561 244.678 112.526C244.797 112.48 244.917 112.446 245.01 112.411C245.116 112.377 245.222 112.343 245.302 112.308C245.395 112.262 245.502 112.205 245.528 112.182C245.581 112.159 245.714 112.067 245.807 112.021C245.9 111.964 246.007 111.93 246.113 111.884C246.219 111.838 246.326 111.792 246.445 111.746C246.552 111.7 246.671 111.654 246.791 111.608C246.897 111.551 247.017 111.505 247.136 111.448C247.256 111.39 247.376 111.333 247.482 111.264C247.602 111.195 247.721 111.115 247.828 111.035C247.947 110.943 248.053 110.851 248.16 110.736C248.266 110.633 248.372 110.518 248.465 110.381C248.558 110.255 248.691 110.014 248.745 109.945C248.798 109.83 248.957 109.52 249.064 109.279C249.17 109.038 249.276 108.786 249.383 108.511C249.489 108.235 249.595 107.937 249.702 107.639C249.808 107.34 249.914 107.019 250.021 106.686C250.127 106.365 250.233 106.021 250.339 105.677C250.446 105.321 250.552 104.965 250.658 104.61C250.765 104.254 250.871 103.875 250.977 103.508C251.084 103.141 251.203 102.774 251.31 102.395C251.416 102.028 251.522 101.65 251.629 101.283C251.735 100.915 251.895 100.365 251.948 100.181C252.001 99.9861 252.16 99.4354 252.267 99.0567C252.373 98.6781 252.479 98.2881 252.586 97.8865C252.692 97.4964 252.798 97.0834 252.905 96.6818C253.011 96.2802 253.117 95.8672 253.224 95.4427C253.33 95.0297 253.436 94.6166 253.543 94.2036C253.649 93.7791 253.755 93.3661 253.875 92.9416C253.981 92.5285 254.088 92.1155 254.194 91.7025C254.3 91.2894 254.407 90.8764 254.513 90.4748C254.619 90.0733 254.725 89.6717 254.832 89.2816C254.938 88.8915 255.098 88.3294 255.151 88.1343C255.204 87.9622 255.363 87.4115 255.47 87.0558C255.576 86.7116 255.682 86.3789 255.789 86.0462C255.895 85.7135 256.001 85.3922 256.108 85.0825C256.214 84.7612 256.32 84.4514 256.427 84.1302C256.546 83.8204 256.653 83.5106 256.759 83.1894C256.865 82.8796 256.972 82.5584 257.078 82.2256C257.184 81.9044 257.291 81.5717 257.397 81.2275C257.503 80.8833 257.61 80.5276 257.716 80.149C257.822 79.7819 257.929 79.4032 258.035 78.9902C258.141 78.5887 258.301 77.9347 258.354 77.7282C258.407 77.4872 258.567 76.7988 258.673 76.2826C258.779 75.7777 258.886 75.227 258.992 74.6648C259.098 74.1141 259.218 73.5175 259.324 72.9324C259.43 72.3358 259.537 71.7277 259.643 71.1196C259.749 70.5001 259.856 69.8805 259.962 69.2725C260.068 68.6644 260.175 68.0563 260.281 67.4597C260.387 66.8631 260.494 66.278 260.6 65.7273C260.706 65.1651 260.813 64.6144 260.919 64.1095C261.025 63.6047 261.132 63.1228 261.238 62.6754C261.344 62.2394 261.504 61.6772 261.557 61.4707C261.61 61.3445 261.743 60.9315 261.836 60.6905C261.929 60.4496 262.035 60.2316 262.142 60.0251C262.248 59.8186 262.354 59.635 262.474 59.4514C262.58 59.2793 262.7 59.1187 262.82 58.9696C262.926 58.8089 263.046 58.6713 263.165 58.5221C263.285 58.3844 263.404 58.2468 263.511 58.1091C263.63 57.9829 263.75 57.8452 263.856 57.7075C263.976 57.5698 264.082 57.4207 264.189 57.2715C264.295 57.1224 264.401 56.9732 264.494 56.8012C264.587 56.6291 264.72 56.3422 264.773 56.2504C264.827 56.1242 264.986 55.7341 265.092 55.4358C265.199 55.1375 265.305 54.8163 265.411 54.4836C265.518 54.1508 265.624 53.7952 265.73 53.428C265.837 53.0724 265.943 52.6938 266.049 52.3151C266.156 51.948 266.262 51.5694 266.368 51.1908C266.475 50.8236 266.581 50.4565 266.687 50.1008C266.794 49.7452 266.9 49.3895 267.006 49.0682C267.113 48.747 267.232 48.4257 267.339 48.1389C267.445 47.8636 267.551 47.5997 267.658 47.3702C267.764 47.1408 267.923 46.8883 267.977 46.7851C268.016 46.7392 268.149 46.5786 268.242 46.4983C268.335 46.4179 268.428 46.3721 268.535 46.3262C268.641 46.2917 268.761 46.2688 268.867 46.2573C268.987 46.2573 269.106 46.2573 269.213 46.2688C269.332 46.2917 269.452 46.3147 269.571 46.3376C269.691 46.372 269.811 46.4065 269.93 46.4409C270.05 46.4868 270.17 46.5212 270.289 46.5671C270.395 46.6015 270.502 46.6474 270.608 46.6704C270.714 46.7048 270.821 46.7392 270.914 46.7621C271.007 46.7736 271.14 46.7851 271.18 46.7851C271.233 46.7851 271.392 46.7851 271.499 46.7851C271.605 46.7851 271.711 46.7851 271.818 46.7851C271.924 46.7851 272.03 46.7851 272.137 46.7851C272.243 46.7851 272.349 46.7851 272.456 46.7851C272.575 46.7851 272.682 46.7851 272.788 46.7851C272.894 46.7851 273 46.7851 273.107 46.7851C273.213 46.7851 273.319 46.7851 273.426 46.7851C273.532 46.7851 273.638 46.7851 273.745 46.7851C273.851 46.7851 273.957 46.7851 274.064 46.7851C274.17 46.7851 274.33 46.7851 274.383 46.7851C274.436 46.7851 274.595 46.7851 274.702 46.7851C274.808 46.7851 274.914 46.7851 275.021 46.7851C275.127 46.7851 275.247 46.7851 275.353 46.7851C275.459 46.7851 275.566 46.7851 275.672 46.7851C275.778 46.7851 275.885 46.7851 275.991 46.7851C276.097 46.7851 276.204 46.7851 276.31 46.7851C276.416 46.7851 276.523 46.7851 276.629 46.7851C276.735 46.7851 276.842 46.7851 276.948 46.7851C277.054 46.7851 277.161 46.7851 277.267 46.7851C277.373 46.7851 277.533 46.7851 277.586 46.7851C277.639 46.7851 277.798 46.7851 277.918 46.7851C278.024 46.7851 278.131 46.7851 278.237 46.7851C278.343 46.7851 278.45 46.7851 278.556 46.7851C278.662 46.7851 278.769 46.7851 278.875 46.7851C278.981 46.7851 279.088 46.7851 279.194 46.7851C279.3 46.7851 279.407 46.7851 279.513 46.7851C279.619 46.7851 279.726 46.7851 279.832 46.7851C279.938 46.7851 280.045 46.7851 280.151 46.7851C280.257 46.7851 280.364 46.7851 280.47 46.7851C280.59 46.7851 280.749 46.7851 280.802 46.7851C280.855 46.7851 281.015 46.7851 281.121 46.7851C281.228 46.7851 281.334 46.7851 281.44 46.7851C281.547 46.7851 281.653 46.7851 281.759 46.7851C281.866 46.7851 281.972 46.7851 282.078 46.7851C282.185 46.7851 282.291 46.7851 282.397 46.7851C282.503 46.7851 282.61 46.7851 282.716 46.7851C282.822 46.7851 282.929 46.7851 283.035 46.7851C283.141 46.7851 283.261 46.7851 283.367 46.7851C283.474 46.7851 283.58 46.7851 283.686 46.7851C283.793 46.7851 283.952 46.7851 284.005 46.7851C284.059 46.7851 284.218 46.7851 284.324 46.7851C284.431 46.7851 284.537 46.7851 284.643 46.7851C284.75 46.7851 284.856 46.7851 284.962 46.7851C285.069 46.7851 285.175 46.7851 285.281 46.7851C285.388 46.7851 285.494 46.7851 285.6 46.7851C285.707 46.7851 285.813 46.7851 285.933 46.7851C286.039 46.7851 286.145 46.7851 286.252 46.7851C286.358 46.7851 286.464 46.7851 286.571 46.7851C286.677 46.7851 286.783 46.7851 286.889 46.7851C286.996 46.7851 287.155 46.7851 287.208 46.7851C287.262 46.7851 287.421 46.7851 287.527 46.7851C287.634 46.7851 287.74 46.7851 287.846 46.7851C287.953 46.7851 288.059 46.7851 288.165 46.7851C288.272 46.7851 288.378 46.7851 288.484 46.7851C288.604 46.7851 288.71 46.7851 288.817 46.7851C288.923 46.7851 289.029 46.7851 289.136 46.7851C289.242 46.7851 289.348 46.7851 289.455 46.7851C289.561 46.7851 289.667 46.7851 289.774 46.7851C289.88 46.7851 289.986 46.7851 290.093 46.7851C290.199 46.7851 290.358 46.7851 290.412 46.7851C290.465 46.7851 290.624 46.7851 290.731 46.7851C290.837 46.7851 290.943 46.7851 291.05 46.7851C291.156 46.7851 291.276 46.7851 291.382 46.7851C291.488 46.7851 291.594 46.7851 291.701 46.7851C291.807 46.7851 291.913 46.7851 292.02 46.7851C292.126 46.7851 292.232 46.7851 292.339 46.7851C292.445 46.7851 292.551 46.7851 292.658 46.7851C292.764 46.7851 292.87 46.7851 292.977 46.7851C293.083 46.7851 293.189 46.7851 293.296 46.7851C293.402 46.7851 293.562 46.7851 293.615 46.7851C293.668 46.7851 293.827 46.7851 293.934 46.7851C294.053 46.7851 294.16 46.7851 294.266 46.7851C294.372 46.7851 294.479 46.7851 294.585 46.7851C294.691 46.7851 294.798 46.7851 294.904 46.7851C295.01 46.7851 295.117 46.7851 295.223 46.7851C295.329 46.7851 295.436 46.7851 295.542 46.7851C295.648 46.7851 295.755 46.7851 295.861 46.7851C295.967 46.7851 296.073 46.7851 296.18 46.7851C296.286 46.7851 296.393 46.7851 296.499 46.7851C296.605 46.7851 296.778 46.7851 296.831 46.7851C296.884 46.7851 297.044 46.7851 297.15 46.7851C297.256 46.7851 297.363 46.7851 297.469 46.7851C297.575 46.7851 297.682 46.7851 297.788 46.7851C297.894 46.7851 298.001 46.7851 298.107 46.7851C298.213 46.7851 298.32 46.7851 298.426 46.7851C298.532 46.7851 298.639 46.7851 298.745 46.7851C298.851 46.7851 298.958 46.7851 299.064 46.7851C299.17 46.7851 299.29 46.7851 299.396 46.7851C299.503 46.7851 299.609 46.7851 299.715 46.7851C299.822 46.7851 299.981 46.7851 300.034 46.7851C300.087 46.7851 300.247 46.7851 300.353 46.7851C300.46 46.7851 300.566 46.7851 300.672 46.7851C300.778 46.7851 300.885 46.7851 300.991 46.7851C301.097 46.7851 301.204 46.7851 301.31 46.7851C301.416 46.7851 301.523 46.7851 301.629 46.7851C301.735 46.7851 301.842 46.7851 301.948 46.7851C302.068 46.7851 302.174 46.7851 302.28 46.7851C302.387 46.7851 302.493 46.7851 302.599 46.7851C302.706 46.7851 302.812 46.7851 302.918 46.7851C303.025 46.7851 303.184 46.7851 303.237 46.7851C303.29 46.7851 303.45 46.7851 303.556 46.7851C303.663 46.7851 303.769 46.7851 303.875 46.7851C303.982 46.7851 304.088 46.7851 304.194 46.7851C304.301 46.7851 304.407 46.7851 304.513 46.7851C304.633 46.7851 304.739 46.7851 304.846 46.7851C304.952 46.7851 305.058 46.7851 305.164 46.7851C305.271 46.7851 305.377 46.7851 305.483 46.7851C305.59 46.7851 305.696 46.7851 305.802 46.7851C305.909 46.7851 306.015 46.7851 306.121 46.7851C306.228 46.7851 306.387 46.7851 306.44 46.7851C306.494 46.7851 306.653 46.7851 306.759 46.7851C306.866 46.7851 306.972 46.7851 307.078 46.7851C307.185 46.7851 307.291 46.7851 307.411 46.7851C307.517 46.7851 307.623 46.7851 307.73 46.7851C307.836 46.7851 307.942 46.7851 308.049 46.7851C308.155 46.7851 308.261 46.7851 308.368 46.7851C308.474 46.7851 308.58 46.7851 308.687 46.7851C308.793 46.7851 308.899 46.7851 309.006 46.7851C309.112 46.7851 309.218 46.7851 309.325 46.7851C309.431 46.7851 309.59 46.7851 309.644 46.7851C309.697 46.7851 309.856 46.7851 309.963 46.7851C310.082 46.7851 310.188 46.7851 310.295 46.7851C310.401 46.7851 310.507 46.7851 310.614 46.7851C310.72 46.7851 310.826 46.7851 310.933 46.7851C311.039 46.7851 311.145 46.7851 311.252 46.7851C311.358 46.7851 311.464 46.7851 311.571 46.7851C311.677 46.7851 311.783 46.7851 311.89 46.7851C311.996 46.7851 312.102 46.7851 312.209 46.7851C312.315 46.7851 312.421 46.7851 312.528 46.7851C312.634 46.7851 312.807 46.7851 312.86 46.7851C312.913 46.7851 313.073 46.7851 313.179 46.7851C313.285 46.7851 313.392 46.7851 313.498 46.7851C313.604 46.7851 313.711 46.7851 313.817 46.7851C313.923 46.7851 314.03 46.7851 314.136 46.7851C314.242 46.7851 314.348 46.7851 314.455 46.7851C314.561 46.7851 314.668 46.7851 314.774 46.7851C314.88 46.7851 314.986 46.7851 315.093 46.7851C315.199 46.7851 315.305 46.7851 315.425 46.7851C315.531 46.7851 315.638 46.7851 315.744 46.7851C315.85 46.7851 316.01 46.7851 316.063 46.7851C316.116 46.7851 316.276 46.7851 316.382 46.7851C316.488 46.7851 316.595 46.7851 316.701 46.7851C316.807 46.7851 316.914 46.7851 317.02 46.7851C317.126 46.7851 317.233 46.7851 317.339 46.7851C317.445 46.7851 317.552 46.7851 317.658 46.7851C317.764 46.7851 317.871 46.7851 317.977 46.7851C318.097 46.7851 318.203 46.7851 318.309 46.7851C318.416 46.7851 318.522 46.7851 318.628 46.7851C318.735 46.7851 318.841 46.7851 318.947 46.7851C319.053 46.7851 319.213 46.7851 319.266 46.7851C319.319 46.7851 319.479 46.7851 319.585 46.7851C319.691 46.7851 319.798 46.7851 319.904 46.7851C320.01 46.7851 320.117 46.7851 320.223 46.7851C320.329 46.7851 320.436 46.7851 320.542 46.7851C320.648 46.7851 320.768 46.7851 320.874 46.7851C320.981 46.7851 321.087 46.7851 321.193 46.7851C321.3 46.7851 321.406 46.7851 321.512 46.7851C321.619 46.7851 321.725 46.7851 321.831 46.7851C321.938 46.7851 322.044 46.7851 322.15 46.7851C322.257 46.7851 322.416 46.7851 322.469 46.7851C322.522 46.7851 322.682 46.7851 322.788 46.7851C322.895 46.7851 323.001 46.7851 323.107 46.7851C323.214 46.7851 323.32 46.7851 323.439 46.7851C323.546 46.7851 323.652 46.7851 323.758 46.7851C323.865 46.7851 323.971 46.7851 324.077 46.7851C324.184 46.7851 324.29 46.7851 324.396 46.7851C324.503 46.7851 324.609 46.7851 324.715 46.7851C324.822 46.7851 324.928 46.7851 325.034 46.7851C325.141 46.7851 325.247 46.7851 325.353 46.7851C325.46 46.7851 325.619 46.7851 325.672 46.7851C325.726 46.7851 325.885 46.7851 325.991 46.7851C326.111 46.7851 326.217 46.7851 326.324 46.7851C326.43 46.7851 326.536 46.7851 326.643 46.7851C326.749 46.7851 326.855 46.7851 326.962 46.7851C327.068 46.7851 327.174 46.7851 327.281 46.7851C327.387 46.7851 327.493 46.7851 327.6 46.7851C327.706 46.7851 327.812 46.7851 327.919 46.7851C328.025 46.7851 328.131 46.7851 328.238 46.7851C328.344 46.7851 328.45 46.7851 328.557 46.7851C328.663 46.7851 328.836 46.7851 328.889 46.7851C328.942 46.7851 329.101 46.7851 329.208 46.7851C329.314 46.7851 329.42 46.7851 329.527 46.7851C329.633 46.7851 329.739 46.7851 329.846 46.7851C329.952 46.7851 330.058 46.7851 330.165 46.7851C330.271 46.7851 330.377 46.7851 330.484 46.7851C330.59 46.7851 330.696 46.7851 330.803 46.7851C330.909 46.7851 331.015 46.7851 331.122 46.7851C331.228 46.7851 331.334 46.7851 331.454 46.7851C331.56 46.7851 331.667 46.7851 331.773 46.7851C331.879 46.7851 332.039 46.7851 332.092 46.7851C332.145 46.7851 332.305 46.7851 332.411 46.7851C332.517 46.7851 332.624 46.7851 332.73 46.7851C332.836 46.7851 332.943 46.7851 333.049 46.7851C333.155 46.7851 333.261 46.7851 333.368 46.7851C333.474 46.7851 333.58 46.7851 333.687 46.7851C333.793 46.7851 333.899 46.7851 334.006 46.7851C334.125 46.7851 334.232 46.7851 334.338 46.7851C334.444 46.7851 334.551 46.7851 334.657 46.7851C334.763 46.7851 334.87 46.7851 334.976 46.7851C335.082 46.7851 335.242 46.7851 335.295 46.7851C335.348 46.7851 335.508 46.7851 335.614 46.7851C335.72 46.7851 335.827 46.7851 335.933 46.7851C336.039 46.7851 336.146 46.7851 336.252 46.7851C336.358 46.7851 336.465 46.7851 336.571 46.7851C336.677 46.7851 336.797 46.7851 336.903 46.7851C337.009 46.7851 337.116 46.7851 337.222 46.7851C337.329 46.7851 337.435 46.7851 337.541 46.7851C337.648 46.7851 337.754 46.7851 337.86 46.7851C337.966 46.7851 338.073 46.7851 338.179 46.7851C338.285 46.7851 338.445 46.7851 338.498 46.7851C338.551 46.7851 338.711 46.7851 338.817 46.7851C338.923 46.7851 339.03 46.7851 339.136 46.7851C339.242 46.7851 339.349 46.7851 339.468 46.7851C339.575 46.7851 339.681 46.7851 339.787 46.7851C339.894 46.7851 340 46.7851 340.106 46.7851C340.213 46.7851 340.319 46.7851 340.425 46.7851C340.532 46.7851 340.638 46.7851 340.744 46.7851C340.851 46.7851 340.957 46.7851 341.063 46.7851C341.17 46.7851 341.276 46.7851 341.382 46.7851C341.489 46.7851 341.648 46.7851 341.701 46.7851C341.754 46.7851 341.914 46.7851 342.02 46.7851C342.14 46.7851 342.246 46.7851 342.352 46.7851C342.459 46.7851 342.565 46.7851 342.671 46.7851C342.778 46.7851 342.884 46.7851 342.99 46.7851C343.097 46.7851 343.203 46.7851 343.309 46.7851C343.416 46.7851 343.522 46.7851 343.628 46.7851C343.735 46.7851 343.841 46.7851 343.947 46.7851C344.054 46.7851 344.16 46.7851 344.266 46.7851C344.373 46.7851 344.479 46.7851 344.585 46.7851C344.692 46.7851 344.864 46.7851 344.918 46.7851C344.971 46.7851 345.13 46.7851 345.237 46.7851C345.343 46.7851 345.449 46.7851 345.556 46.7851C345.662 46.7851 345.768 46.7851 345.875 46.7851C345.981 46.7851 346.087 46.7851 346.194 46.7851C346.3 46.7851 346.406 46.7851 346.513 46.7851C346.619 46.7851 346.725 46.7851 346.832 46.7851C346.938 46.7851 347.044 46.7851 347.15 46.7851C347.257 46.7851 347.363 46.7851 347.483 46.7851C347.589 46.7851 347.695 46.7851 347.802 46.7851C347.908 46.7851 348.068 46.7851 348.121 46.7851C348.174 46.7851 348.333 46.7851 348.44 46.7851C348.546 46.7851 348.652 46.7851 348.759 46.7851C348.865 46.7851 348.971 46.7851 349.078 46.7851C349.184 46.7851 349.29 46.7851 349.397 46.7851C349.503 46.7851 349.609 46.7851 349.716 46.7851C349.822 46.7851 349.928 46.7851 350.035 46.7851C350.154 46.7851 350.261 46.7851 350.367 46.7851C350.473 46.7851 350.58 46.7851 350.686 46.7851C350.792 46.7851 350.899 46.7851 351.005 46.7851C351.111 46.7851 351.271 46.7851 351.324 46.7851C351.377 46.7851 351.536 46.7851 351.643 46.7851C351.749 46.7851 351.855 46.7851 351.962 46.7851C352.068 46.7851 352.174 46.7851 352.281 46.7851C352.387 46.7851 352.493 46.7851 352.6 46.7851C352.706 46.7851 352.826 46.7851 352.932 46.7851C353.038 46.7851 353.145 46.7851 353.251 46.7851C353.357 46.7851 353.464 46.7851 353.57 46.7851C353.676 46.7851 353.783 46.7851 353.889 46.7851C353.995 46.7851 354.102 46.7851 354.208 46.7851C354.314 46.7851 354.474 46.7851 354.527 46.7851C354.58 46.7851 354.74 46.7851 354.846 46.7851C354.952 46.7851 355.059 46.7851 355.165 46.7851C355.271 46.7851 355.378 46.7851 355.497 46.7851C355.604 46.7851 355.71 46.7851 355.816 46.7851C355.923 46.7851 356.029 46.7851 356.135 46.7851C356.241 46.7851 356.348 46.7851 356.454 46.7851C356.56 46.7851 356.667 46.7851 356.773 46.7851C356.879 46.7851 356.986 46.7851 357.092 46.7851C357.198 46.7851 357.305 46.7851 357.411 46.7851C357.517 46.7851 357.677 46.7851 357.73 46.7851C357.783 46.7851 357.943 46.7851 358.049 46.7851C358.169 46.7851 358.275 46.7851 358.381 46.7851C358.488 46.7851 358.594 46.7851 358.7 46.7851C358.807 46.7851 358.913 46.7851 359.019 46.7851C359.126 46.7851 359.232 46.7851 359.338 46.7851C359.445 46.7851 359.551 46.7851 359.657 46.7851C359.764 46.7851 359.87 46.7851 359.976 46.7851C360.083 46.7851 360.189 46.7851 360.295 46.7851C360.402 46.7851 360.508 46.7851 360.614 46.7851C360.721 46.7851 360.893 46.7851 360.946 46.7851C361 46.7851 361.159 46.7851 361.265 46.7851C361.372 46.7851 361.478 46.7851 361.584 46.7851C361.691 46.7851 361.797 46.7851 361.903 46.7851C362.01 46.7851 362.116 46.7851 362.222 46.7851C362.329 46.7851 362.435 46.7851 362.541 46.7851C362.648 46.7851 362.754 46.7851 362.86 46.7851C362.967 46.7851 363.073 46.7851 363.179 46.7851C363.286 46.7851 363.392 46.7851 363.512 46.7851C363.618 46.7851 363.724 46.7851 363.831 46.7851C363.937 46.7851 364.096 46.7851 364.15 46.7851" stroke="#FB923C" stroke-width="2" stroke-linecap="round"/>
</g>
<path d="M55.8594 261.476C55.4313 261.476 55.0668 261.359 54.7656 261.126C54.4645 260.891 54.2344 260.551 54.0753 260.106C53.9162 259.659 53.8366 259.119 53.8366 258.487C53.8366 257.858 53.9162 257.321 54.0753 256.876C54.2363 256.429 54.4673 256.088 54.7685 255.853C55.0715 255.617 55.4351 255.498 55.8594 255.498C56.2836 255.498 56.6463 255.617 56.9474 255.853C57.2505 256.088 57.4815 256.429 57.6406 256.876C57.8016 257.321 57.8821 257.858 57.8821 258.487C57.8821 259.119 57.8026 259.659 57.6435 260.106C57.4844 260.551 57.2543 260.891 56.9531 261.126C56.652 261.359 56.2874 261.476 55.8594 261.476ZM55.8594 260.851C56.2836 260.851 56.6132 260.646 56.848 260.237C57.0829 259.828 57.2003 259.244 57.2003 258.487C57.2003 257.983 57.1463 257.554 57.0384 257.2C56.9323 256.846 56.7789 256.576 56.5781 256.39C56.3793 256.205 56.1397 256.112 55.8594 256.112C55.4389 256.112 55.1103 256.319 54.8736 256.734C54.6368 257.147 54.5185 257.731 54.5185 258.487C54.5185 258.991 54.5715 259.419 54.6776 259.771C54.7836 260.123 54.9361 260.391 55.1349 260.575C55.3357 260.759 55.5772 260.851 55.8594 260.851Z" fill="#595959"/>
<path d="M106.153 261.396V260.885L108.074 258.782C108.299 258.536 108.484 258.322 108.63 258.14C108.776 257.957 108.884 257.784 108.954 257.623C109.026 257.46 109.062 257.29 109.062 257.112C109.062 256.907 109.013 256.73 108.914 256.581C108.818 256.431 108.685 256.316 108.517 256.234C108.348 256.153 108.159 256.112 107.949 256.112C107.725 256.112 107.53 256.158 107.363 256.251C107.199 256.342 107.071 256.47 106.98 256.635C106.891 256.799 106.846 256.993 106.846 257.214H106.176C106.176 256.873 106.254 256.574 106.412 256.316C106.569 256.059 106.783 255.858 107.054 255.714C107.326 255.57 107.632 255.498 107.971 255.498C108.312 255.498 108.614 255.57 108.877 255.714C109.141 255.858 109.347 256.052 109.497 256.297C109.646 256.541 109.721 256.813 109.721 257.112C109.721 257.326 109.682 257.535 109.605 257.74C109.529 257.942 109.396 258.169 109.207 258.419C109.02 258.667 108.759 258.97 108.426 259.328L107.119 260.726V260.771H109.824V261.396H106.153ZM112.895 261.476C112.467 261.476 112.102 261.359 111.801 261.126C111.5 260.891 111.27 260.551 111.11 260.106C110.951 259.659 110.872 259.119 110.872 258.487C110.872 257.858 110.951 257.321 111.11 256.876C111.271 256.429 111.502 256.088 111.804 255.853C112.107 255.617 112.47 255.498 112.895 255.498C113.319 255.498 113.681 255.617 113.983 255.853C114.286 256.088 114.517 256.429 114.676 256.876C114.837 257.321 114.917 257.858 114.917 258.487C114.917 259.119 114.838 259.659 114.679 260.106C114.52 260.551 114.289 260.891 113.988 261.126C113.687 261.359 113.323 261.476 112.895 261.476ZM112.895 260.851C113.319 260.851 113.648 260.646 113.883 260.237C114.118 259.828 114.235 259.244 114.235 258.487C114.235 257.983 114.181 257.554 114.074 257.2C113.967 256.846 113.814 256.576 113.613 256.39C113.414 256.205 113.175 256.112 112.895 256.112C112.474 256.112 112.145 256.319 111.909 256.734C111.672 257.147 111.554 257.731 111.554 258.487C111.554 258.991 111.607 259.419 111.713 259.771C111.819 260.123 111.971 260.391 112.17 260.575C112.371 260.759 112.612 260.851 112.895 260.851Z" fill="#595959"/>
<path d="M161.362 260.203V259.623L163.919 255.578H164.34V256.476H164.056L162.124 259.532V259.578H165.567V260.203H161.362ZM164.101 261.396V260.027V259.757V255.578H164.771V261.396H164.101ZM168.529 261.476C168.101 261.476 167.737 261.359 167.436 261.126C167.134 260.891 166.904 260.551 166.745 260.106C166.586 259.659 166.507 259.119 166.507 258.487C166.507 257.858 166.586 257.321 166.745 256.876C166.906 256.429 167.137 256.088 167.438 255.853C167.741 255.617 168.105 255.498 168.529 255.498C168.954 255.498 169.316 255.617 169.617 255.853C169.92 256.088 170.151 256.429 170.311 256.876C170.472 257.321 170.552 257.858 170.552 258.487C170.552 259.119 170.472 259.659 170.313 260.106C170.154 260.551 169.924 260.891 169.623 261.126C169.322 261.359 168.957 261.476 168.529 261.476ZM168.529 260.851C168.954 260.851 169.283 260.646 169.518 260.237C169.753 259.828 169.87 259.244 169.87 258.487C169.87 257.983 169.816 257.554 169.708 257.2C169.602 256.846 169.449 256.576 169.248 256.39C169.049 256.205 168.81 256.112 168.529 256.112C168.109 256.112 167.78 256.319 167.544 256.734C167.307 257.147 167.188 257.731 167.188 258.487C167.188 258.991 167.241 259.419 167.347 259.771C167.454 260.123 167.606 260.391 167.805 260.575C168.006 260.759 168.247 260.851 168.529 260.851Z" fill="#595959"/>
<path d="M218.777 261.476C218.538 261.472 218.299 261.426 218.061 261.339C217.822 261.252 217.604 261.105 217.407 260.899C217.21 260.691 217.052 260.409 216.933 260.055C216.814 259.699 216.754 259.252 216.754 258.714C216.754 258.199 216.802 257.743 216.899 257.345C216.996 256.945 217.136 256.609 217.319 256.336C217.503 256.062 217.725 255.853 217.984 255.711C218.246 255.569 218.54 255.498 218.868 255.498C219.193 255.498 219.483 255.564 219.737 255.694C219.993 255.823 220.201 256.003 220.362 256.234C220.523 256.465 220.627 256.731 220.674 257.032H219.981C219.917 256.771 219.792 256.554 219.606 256.382C219.421 256.209 219.174 256.123 218.868 256.123C218.417 256.123 218.062 256.319 217.802 256.711C217.545 257.103 217.415 257.654 217.413 258.362H217.459C217.565 258.201 217.691 258.064 217.836 257.95C217.984 257.834 218.147 257.745 218.325 257.683C218.503 257.62 218.692 257.589 218.89 257.589C219.224 257.589 219.529 257.673 219.805 257.839C220.082 258.004 220.303 258.232 220.47 258.524C220.637 258.814 220.72 259.146 220.72 259.521C220.72 259.881 220.639 260.21 220.478 260.51C220.317 260.807 220.091 261.044 219.799 261.22C219.51 261.394 219.169 261.479 218.777 261.476ZM218.777 260.851C219.015 260.851 219.229 260.791 219.419 260.672C219.61 260.552 219.761 260.392 219.871 260.191C219.982 259.991 220.038 259.767 220.038 259.521C220.038 259.28 219.984 259.062 219.876 258.865C219.77 258.666 219.623 258.508 219.436 258.39C219.25 258.273 219.038 258.214 218.799 258.214C218.62 258.214 218.452 258.25 218.297 258.322C218.141 258.392 218.005 258.489 217.888 258.612C217.772 258.735 217.681 258.876 217.615 259.035C217.549 259.192 217.515 259.358 217.515 259.532C217.515 259.763 217.569 259.979 217.677 260.18C217.787 260.381 217.937 260.543 218.126 260.666C218.317 260.789 218.534 260.851 218.777 260.851ZM223.735 261.476C223.307 261.476 222.942 261.359 222.641 261.126C222.34 260.891 222.11 260.551 221.951 260.106C221.792 259.659 221.712 259.119 221.712 258.487C221.712 257.858 221.792 257.321 221.951 256.876C222.112 256.429 222.343 256.088 222.644 255.853C222.947 255.617 223.311 255.498 223.735 255.498C224.159 255.498 224.522 255.617 224.823 255.853C225.126 256.088 225.357 256.429 225.516 256.876C225.677 257.321 225.758 257.858 225.758 258.487C225.758 259.119 225.678 259.659 225.519 260.106C225.36 260.551 225.13 260.891 224.829 261.126C224.527 261.359 224.163 261.476 223.735 261.476ZM223.735 260.851C224.159 260.851 224.489 260.646 224.723 260.237C224.958 259.828 225.076 259.244 225.076 258.487C225.076 257.983 225.022 257.554 224.914 257.2C224.808 256.846 224.654 256.576 224.454 256.39C224.255 256.205 224.015 256.112 223.735 256.112C223.314 256.112 222.986 256.319 222.749 256.734C222.512 257.147 222.394 257.731 222.394 258.487C222.394 258.991 222.447 259.419 222.553 259.771C222.659 260.123 222.812 260.391 223.01 260.575C223.211 260.759 223.453 260.851 223.735 260.851Z" fill="#595959"/>
<path d="M274.055 261.476C273.665 261.476 273.32 261.406 273.021 261.268C272.723 261.128 272.491 260.936 272.325 260.691C272.158 260.445 272.076 260.165 272.078 259.851C272.076 259.604 272.124 259.377 272.222 259.169C272.321 258.958 272.455 258.783 272.626 258.643C272.798 258.501 272.99 258.411 273.203 258.373V258.339C272.924 258.267 272.703 258.111 272.538 257.87C272.373 257.628 272.292 257.352 272.293 257.044C272.292 256.748 272.366 256.484 272.518 256.251C272.669 256.018 272.878 255.834 273.143 255.7C273.41 255.566 273.714 255.498 274.055 255.498C274.392 255.498 274.693 255.566 274.958 255.7C275.223 255.834 275.432 256.018 275.583 256.251C275.737 256.484 275.814 256.748 275.816 257.044C275.814 257.352 275.73 257.628 275.563 257.87C275.399 258.111 275.18 258.267 274.907 258.339V258.373C275.117 258.411 275.307 258.501 275.475 258.643C275.644 258.783 275.778 258.958 275.879 259.169C275.979 259.377 276.03 259.604 276.032 259.851C276.03 260.165 275.945 260.445 275.776 260.691C275.61 260.936 275.378 261.128 275.08 261.268C274.785 261.406 274.443 261.476 274.055 261.476ZM274.055 260.851C274.318 260.851 274.545 260.808 274.737 260.723C274.928 260.637 275.076 260.517 275.18 260.362C275.284 260.207 275.337 260.025 275.339 259.816C275.337 259.597 275.28 259.403 275.168 259.234C275.057 259.066 274.904 258.933 274.711 258.836C274.52 258.74 274.301 258.691 274.055 258.691C273.807 258.691 273.585 258.74 273.39 258.836C273.197 258.933 273.044 259.066 272.933 259.234C272.823 259.403 272.769 259.597 272.771 259.816C272.769 260.025 272.819 260.207 272.921 260.362C273.025 260.517 273.174 260.637 273.367 260.723C273.56 260.808 273.79 260.851 274.055 260.851ZM274.055 258.089C274.263 258.089 274.448 258.048 274.609 257.964C274.772 257.881 274.899 257.764 274.992 257.615C275.085 257.465 275.132 257.29 275.134 257.089C275.132 256.892 275.086 256.721 274.995 256.575C274.904 256.427 274.778 256.314 274.617 256.234C274.456 256.153 274.269 256.112 274.055 256.112C273.837 256.112 273.647 256.153 273.484 256.234C273.321 256.314 273.195 256.427 273.106 256.575C273.017 256.721 272.973 256.892 272.975 257.089C272.973 257.29 273.018 257.465 273.109 257.615C273.202 257.764 273.329 257.881 273.492 257.964C273.655 258.048 273.843 258.089 274.055 258.089ZM279.019 261.476C278.591 261.476 278.226 261.359 277.925 261.126C277.624 260.891 277.394 260.551 277.234 260.106C277.075 259.659 276.996 259.119 276.996 258.487C276.996 257.858 277.075 257.321 277.234 256.876C277.395 256.429 277.627 256.088 277.928 255.853C278.231 255.617 278.594 255.498 279.019 255.498C279.443 255.498 279.805 255.617 280.107 255.853C280.41 256.088 280.641 256.429 280.8 256.876C280.961 257.321 281.041 257.858 281.041 258.487C281.041 259.119 280.962 259.659 280.803 260.106C280.644 260.551 280.413 260.891 280.112 261.126C279.811 261.359 279.447 261.476 279.019 261.476ZM279.019 260.851C279.443 260.851 279.772 260.646 280.007 260.237C280.242 259.828 280.359 259.244 280.359 258.487C280.359 257.983 280.305 257.554 280.198 257.2C280.091 256.846 279.938 256.576 279.737 256.39C279.538 256.205 279.299 256.112 279.019 256.112C278.598 256.112 278.27 256.319 278.033 256.734C277.796 257.147 277.678 257.731 277.678 258.487C277.678 258.991 277.731 259.419 277.837 259.771C277.943 260.123 278.095 260.391 278.294 260.575C278.495 260.759 278.736 260.851 279.019 260.851Z" fill="#595959"/>
<path d="M326.428 255.578V261.396H325.723V256.316H325.689L324.268 257.26V256.544L325.723 255.578H326.428ZM329.999 261.476C329.571 261.476 329.206 261.359 328.905 261.126C328.604 260.891 328.374 260.551 328.214 260.106C328.055 259.659 327.976 259.119 327.976 258.487C327.976 257.858 328.055 257.321 328.214 256.876C328.375 256.429 328.606 256.088 328.908 255.853C329.211 255.617 329.574 255.498 329.999 255.498C330.423 255.498 330.785 255.617 331.087 255.853C331.39 256.088 331.621 256.429 331.78 256.876C331.941 257.321 332.021 257.858 332.021 258.487C332.021 259.119 331.942 259.659 331.783 260.106C331.624 260.551 331.393 260.891 331.092 261.126C330.791 261.359 330.427 261.476 329.999 261.476ZM329.999 260.851C330.423 260.851 330.752 260.646 330.987 260.237C331.222 259.828 331.339 259.244 331.339 258.487C331.339 257.983 331.285 257.554 331.178 257.2C331.071 256.846 330.918 256.576 330.717 256.39C330.518 256.205 330.279 256.112 329.999 256.112C329.578 256.112 329.249 256.319 329.013 256.734C328.776 257.147 328.658 257.731 328.658 258.487C328.658 258.991 328.711 259.419 328.817 259.771C328.923 260.123 329.075 260.391 329.274 260.575C329.475 260.759 329.716 260.851 329.999 260.851ZM334.999 261.476C334.571 261.476 334.206 261.359 333.905 261.126C333.604 260.891 333.374 260.551 333.214 260.106C333.055 259.659 332.976 259.119 332.976 258.487C332.976 257.858 333.055 257.321 333.214 256.876C333.375 256.429 333.606 256.088 333.908 255.853C334.211 255.617 334.574 255.498 334.999 255.498C335.423 255.498 335.785 255.617 336.087 255.853C336.39 256.088 336.621 256.429 336.78 256.876C336.941 257.321 337.021 257.858 337.021 258.487C337.021 259.119 336.942 259.659 336.783 260.106C336.624 260.551 336.393 260.891 336.092 261.126C335.791 261.359 335.427 261.476 334.999 261.476ZM334.999 260.851C335.423 260.851 335.752 260.646 335.987 260.237C336.222 259.828 336.339 259.244 336.339 258.487C336.339 257.983 336.285 257.554 336.178 257.2C336.071 256.846 335.918 256.576 335.717 256.39C335.518 256.205 335.279 256.112 334.999 256.112C334.578 256.112 334.249 256.319 334.013 256.734C333.776 257.147 333.658 257.731 333.658 258.487C333.658 258.991 333.711 259.419 333.817 259.771C333.923 260.123 334.075 260.391 334.274 260.575C334.475 260.759 334.716 260.851 334.999 260.851Z" fill="#595959"/>
<path d="M381.773 255.578V261.396H381.069V256.316H381.035L379.614 257.26V256.544L381.069 255.578H381.773ZM383.447 261.396V260.885L385.367 258.782C385.592 258.536 385.778 258.322 385.924 258.14C386.07 257.957 386.178 257.784 386.248 257.623C386.32 257.46 386.356 257.29 386.356 257.112C386.356 256.907 386.306 256.73 386.208 256.581C386.111 256.431 385.979 256.316 385.81 256.234C385.642 256.153 385.452 256.112 385.242 256.112C385.018 256.112 384.823 256.158 384.657 256.251C384.492 256.342 384.364 256.47 384.273 256.635C384.184 256.799 384.14 256.993 384.14 257.214H383.469C383.469 256.873 383.548 256.574 383.705 256.316C383.862 256.059 384.076 255.858 384.347 255.714C384.62 255.57 384.926 255.498 385.265 255.498C385.606 255.498 385.908 255.57 386.171 255.714C386.434 255.858 386.641 256.052 386.79 256.297C386.94 256.541 387.015 256.813 387.015 257.112C387.015 257.326 386.976 257.535 386.898 257.74C386.822 257.942 386.69 258.169 386.5 258.419C386.313 258.667 386.053 258.97 385.719 259.328L384.412 260.726V260.771H387.117V261.396H383.447ZM390.188 261.476C389.76 261.476 389.395 261.359 389.094 261.126C388.793 260.891 388.563 260.551 388.404 260.106C388.245 259.659 388.165 259.119 388.165 258.487C388.165 257.858 388.245 257.321 388.404 256.876C388.565 256.429 388.796 256.088 389.097 255.853C389.4 255.617 389.764 255.498 390.188 255.498C390.612 255.498 390.975 255.617 391.276 255.853C391.579 256.088 391.81 256.429 391.969 256.876C392.13 257.321 392.211 257.858 392.211 258.487C392.211 259.119 392.131 259.659 391.972 260.106C391.813 260.551 391.583 260.891 391.282 261.126C390.981 261.359 390.616 261.476 390.188 261.476ZM390.188 260.851C390.612 260.851 390.942 260.646 391.177 260.237C391.411 259.828 391.529 259.244 391.529 258.487C391.529 257.983 391.475 257.554 391.367 257.2C391.261 256.846 391.107 256.576 390.907 256.39C390.708 256.205 390.468 256.112 390.188 256.112C389.768 256.112 389.439 256.319 389.202 256.734C388.965 257.147 388.847 257.731 388.847 258.487C388.847 258.991 388.9 259.419 389.006 259.771C389.112 260.123 389.265 260.391 389.464 260.575C389.664 260.759 389.906 260.851 390.188 260.851Z" fill="#595959"/>
<path d="M43.8525 248.969C43.4245 248.969 43.0599 248.853 42.7588 248.62C42.4577 248.385 42.2275 248.045 42.0684 247.6C41.9094 247.153 41.8298 246.613 41.8298 245.981C41.8298 245.352 41.9094 244.815 42.0684 244.37C42.2294 243.923 42.4605 243.582 42.7616 243.347C43.0647 243.11 43.4283 242.992 43.8525 242.992C44.2768 242.992 44.6395 243.11 44.9406 243.347C45.2436 243.582 45.4747 243.923 45.6338 244.37C45.7948 244.815 45.8753 245.352 45.8753 245.981C45.8753 246.613 45.7957 247.153 45.6366 247.6C45.4775 248.045 45.2474 248.385 44.9463 248.62C44.6452 248.853 44.2806 248.969 43.8525 248.969ZM43.8525 248.344C44.2768 248.344 44.6063 248.14 44.8412 247.731C45.076 247.321 45.1934 246.738 45.1934 245.981C45.1934 245.477 45.1395 245.048 45.0315 244.694C44.9255 244.339 44.772 244.07 44.5713 243.884C44.3724 243.698 44.1328 243.606 43.8525 243.606C43.4321 243.606 43.1035 243.813 42.8667 244.228C42.63 244.641 42.5116 245.225 42.5116 245.981C42.5116 246.484 42.5647 246.912 42.6707 247.265C42.7768 247.617 42.9292 247.885 43.1281 248.069C43.3289 248.252 43.5703 248.344 43.8525 248.344Z" fill="#595959"/>
<path d="M27.1111 208.742V208.231L29.0315 206.129C29.2569 205.882 29.4425 205.668 29.5883 205.487C29.7342 205.303 29.8421 205.13 29.9122 204.969C29.9842 204.807 30.0202 204.636 30.0202 204.458C30.0202 204.254 29.9709 204.076 29.8724 203.927C29.7758 203.777 29.6433 203.662 29.4747 203.58C29.3061 203.499 29.1167 203.458 28.9065 203.458C28.683 203.458 28.488 203.504 28.3213 203.597C28.1565 203.688 28.0287 203.816 27.9378 203.981C27.8488 204.146 27.8042 204.339 27.8042 204.56H27.1338C27.1338 204.219 27.2124 203.92 27.3696 203.663C27.5268 203.405 27.7408 203.204 28.0116 203.06C28.2844 202.916 28.5902 202.844 28.9292 202.844C29.2702 202.844 29.5722 202.916 29.8355 203.06C30.0988 203.204 30.3052 203.398 30.4548 203.643C30.6044 203.887 30.6792 204.159 30.6792 204.458C30.6792 204.672 30.6404 204.881 30.5628 205.086C30.487 205.289 30.3544 205.515 30.165 205.765C29.9775 206.013 29.7171 206.316 29.3838 206.674L28.077 208.072V208.117H30.7815V208.742H27.1111ZM33.8525 208.822C33.4245 208.822 33.0599 208.705 32.7588 208.472C32.4577 208.237 32.2275 207.897 32.0684 207.452C31.9094 207.005 31.8298 206.466 31.8298 205.833C31.8298 205.204 31.9094 204.667 32.0684 204.222C32.2294 203.775 32.4605 203.434 32.7616 203.2C33.0647 202.963 33.4283 202.844 33.8525 202.844C34.2768 202.844 34.6395 202.963 34.9406 203.2C35.2436 203.434 35.4747 203.775 35.6338 204.222C35.7948 204.667 35.8753 205.204 35.8753 205.833C35.8753 206.466 35.7957 207.005 35.6366 207.452C35.4775 207.897 35.2474 208.237 34.9463 208.472C34.6452 208.705 34.2806 208.822 33.8525 208.822ZM33.8525 208.197C34.2768 208.197 34.6063 207.992 34.8412 207.583C35.076 207.174 35.1934 206.591 35.1934 205.833C35.1934 205.329 35.1395 204.9 35.0315 204.546C34.9255 204.192 34.772 203.922 34.5713 203.737C34.3724 203.551 34.1328 203.458 33.8525 203.458C33.4321 203.458 33.1035 203.665 32.8667 204.08C32.63 204.493 32.5116 205.077 32.5116 205.833C32.5116 206.337 32.5647 206.765 32.6707 207.117C32.7768 207.469 32.9292 207.737 33.1281 207.921C33.3289 208.105 33.5703 208.197 33.8525 208.197ZM38.8525 208.822C38.4245 208.822 38.0599 208.705 37.7588 208.472C37.4577 208.237 37.2275 207.897 37.0684 207.452C36.9094 207.005 36.8298 206.466 36.8298 205.833C36.8298 205.204 36.9094 204.667 37.0684 204.222C37.2294 203.775 37.4605 203.434 37.7616 203.2C38.0647 202.963 38.4283 202.844 38.8525 202.844C39.2768 202.844 39.6395 202.963 39.9406 203.2C40.2436 203.434 40.4747 203.775 40.6338 204.222C40.7948 204.667 40.8753 205.204 40.8753 205.833C40.8753 206.466 40.7957 207.005 40.6366 207.452C40.4775 207.897 40.2474 208.237 39.9463 208.472C39.6452 208.705 39.2806 208.822 38.8525 208.822ZM38.8525 208.197C39.2768 208.197 39.6063 207.992 39.8412 207.583C40.076 207.174 40.1934 206.591 40.1934 205.833C40.1934 205.329 40.1395 204.9 40.0315 204.546C39.9255 204.192 39.772 203.922 39.5713 203.737C39.3724 203.551 39.1328 203.458 38.8525 203.458C38.4321 203.458 38.1035 203.665 37.8667 204.08C37.63 204.493 37.5116 205.077 37.5116 205.833C37.5116 206.337 37.5647 206.765 37.6707 207.117C37.7768 207.469 37.9292 207.737 38.1281 207.921C38.3289 208.105 38.5703 208.197 38.8525 208.197ZM43.8525 208.822C43.4245 208.822 43.0599 208.705 42.7588 208.472C42.4577 208.237 42.2275 207.897 42.0684 207.452C41.9094 207.005 41.8298 206.466 41.8298 205.833C41.8298 205.204 41.9094 204.667 42.0684 204.222C42.2294 203.775 42.4605 203.434 42.7616 203.2C43.0647 202.963 43.4283 202.844 43.8525 202.844C44.2768 202.844 44.6395 202.963 44.9406 203.2C45.2436 203.434 45.4747 203.775 45.6338 204.222C45.7948 204.667 45.8753 205.204 45.8753 205.833C45.8753 206.466 45.7957 207.005 45.6366 207.452C45.4775 207.897 45.2474 208.237 44.9463 208.472C44.6452 208.705 44.2806 208.822 43.8525 208.822ZM43.8525 208.197C44.2768 208.197 44.6063 207.992 44.8412 207.583C45.076 207.174 45.1934 206.591 45.1934 205.833C45.1934 205.329 45.1395 204.9 45.0315 204.546C44.9255 204.192 44.772 203.922 44.5713 203.737C44.3724 203.551 44.1328 203.458 43.8525 203.458C43.4321 203.458 43.1035 203.665 42.8667 204.08C42.63 204.493 42.5116 205.077 42.5116 205.833C42.5116 206.337 42.5647 206.765 42.6707 207.117C42.7768 207.469 42.9292 207.737 43.1281 207.921C43.3289 208.105 43.5703 208.197 43.8525 208.197Z" fill="#595959"/>
<path d="M26.6856 167.4V166.821L29.2425 162.775H29.6629V163.673H29.3788L27.447 166.73V166.775H30.8902V167.4H26.6856ZM29.4243 168.593V167.224V166.954V162.775H30.0947V168.593H29.4243ZM33.8525 168.673C33.4245 168.673 33.0599 168.556 32.7588 168.323C32.4577 168.089 32.2275 167.749 32.0684 167.303C31.9094 166.857 31.8298 166.317 31.8298 165.684C31.8298 165.055 31.9094 164.518 32.0684 164.073C32.2294 163.626 32.4605 163.285 32.7616 163.051C33.0647 162.814 33.4283 162.696 33.8525 162.696C34.2768 162.696 34.6395 162.814 34.9406 163.051C35.2436 163.285 35.4747 163.626 35.6338 164.073C35.7948 164.518 35.8753 165.055 35.8753 165.684C35.8753 166.317 35.7957 166.857 35.6366 167.303C35.4775 167.749 35.2474 168.089 34.9463 168.323C34.6452 168.556 34.2806 168.673 33.8525 168.673ZM33.8525 168.048C34.2768 168.048 34.6063 167.843 34.8412 167.434C35.076 167.025 35.1934 166.442 35.1934 165.684C35.1934 165.18 35.1395 164.751 35.0315 164.397C34.9255 164.043 34.772 163.773 34.5713 163.588C34.3724 163.402 34.1328 163.309 33.8525 163.309C33.4321 163.309 33.1035 163.517 32.8667 163.931C32.63 164.344 32.5116 164.928 32.5116 165.684C32.5116 166.188 32.5647 166.616 32.6707 166.968C32.7768 167.321 32.9292 167.589 33.1281 167.772C33.3289 167.956 33.5703 168.048 33.8525 168.048ZM38.8525 168.673C38.4245 168.673 38.0599 168.556 37.7588 168.323C37.4577 168.089 37.2275 167.749 37.0684 167.303C36.9094 166.857 36.8298 166.317 36.8298 165.684C36.8298 165.055 36.9094 164.518 37.0684 164.073C37.2294 163.626 37.4605 163.285 37.7616 163.051C38.0647 162.814 38.4283 162.696 38.8525 162.696C39.2768 162.696 39.6395 162.814 39.9406 163.051C40.2436 163.285 40.4747 163.626 40.6338 164.073C40.7948 164.518 40.8753 165.055 40.8753 165.684C40.8753 166.317 40.7957 166.857 40.6366 167.303C40.4775 167.749 40.2474 168.089 39.9463 168.323C39.6452 168.556 39.2806 168.673 38.8525 168.673ZM38.8525 168.048C39.2768 168.048 39.6063 167.843 39.8412 167.434C40.076 167.025 40.1934 166.442 40.1934 165.684C40.1934 165.18 40.1395 164.751 40.0315 164.397C39.9255 164.043 39.772 163.773 39.5713 163.588C39.3724 163.402 39.1328 163.309 38.8525 163.309C38.4321 163.309 38.1035 163.517 37.8667 163.931C37.63 164.344 37.5116 164.928 37.5116 165.684C37.5116 166.188 37.5647 166.616 37.6707 166.968C37.7768 167.321 37.9292 167.589 38.1281 167.772C38.3289 167.956 38.5703 168.048 38.8525 168.048ZM43.8525 168.673C43.4245 168.673 43.0599 168.556 42.7588 168.323C42.4577 168.089 42.2275 167.749 42.0684 167.303C41.9094 166.857 41.8298 166.317 41.8298 165.684C41.8298 165.055 41.9094 164.518 42.0684 164.073C42.2294 163.626 42.4605 163.285 42.7616 163.051C43.0647 162.814 43.4283 162.696 43.8525 162.696C44.2768 162.696 44.6395 162.814 44.9406 163.051C45.2436 163.285 45.4747 163.626 45.6338 164.073C45.7948 164.518 45.8753 165.055 45.8753 165.684C45.8753 166.317 45.7957 166.857 45.6366 167.303C45.4775 167.749 45.2474 168.089 44.9463 168.323C44.6452 168.556 44.2806 168.673 43.8525 168.673ZM43.8525 168.048C44.2768 168.048 44.6063 167.843 44.8412 167.434C45.076 167.025 45.1934 166.442 45.1934 165.684C45.1934 165.18 45.1395 164.751 45.0315 164.397C44.9255 164.043 44.772 163.773 44.5713 163.588C44.3724 163.402 44.1328 163.309 43.8525 163.309C43.4321 163.309 43.1035 163.517 42.8667 163.931C42.63 164.344 42.5116 164.928 42.5116 165.684C42.5116 166.188 42.5647 166.616 42.6707 166.968C42.7768 167.321 42.9292 167.589 43.1281 167.772C43.3289 167.956 43.5703 168.048 43.8525 168.048Z" fill="#595959"/>
<path d="M28.8944 128.525C28.6558 128.521 28.4172 128.476 28.1785 128.388C27.9399 128.301 27.7221 128.155 27.5251 127.948C27.3282 127.74 27.17 127.459 27.0507 127.104C26.9314 126.748 26.8717 126.301 26.8717 125.763C26.8717 125.248 26.92 124.792 27.0166 124.394C27.1132 123.995 27.2533 123.658 27.4371 123.386C27.6208 123.111 27.8424 122.903 28.1018 122.761C28.3632 122.619 28.6577 122.548 28.9854 122.548C29.3111 122.548 29.6009 122.613 29.8547 122.744C30.1104 122.872 30.3187 123.052 30.4797 123.283C30.6407 123.514 30.7448 123.781 30.7922 124.082H30.099C30.0346 123.82 29.9096 123.603 29.724 123.431C29.5384 123.259 29.2922 123.173 28.9854 123.173C28.5346 123.173 28.1795 123.369 27.92 123.761C27.6624 124.153 27.5327 124.703 27.5308 125.411H27.5763C27.6823 125.25 27.8083 125.113 27.9541 124.999C28.1018 124.884 28.2647 124.795 28.4427 124.732C28.6208 124.67 28.8092 124.638 29.0081 124.638C29.3414 124.638 29.6463 124.722 29.9229 124.888C30.1994 125.053 30.421 125.281 30.5876 125.573C30.7543 125.863 30.8376 126.195 30.8376 126.57C30.8376 126.93 30.7571 127.26 30.5961 127.559C30.4352 127.856 30.2088 128.093 29.9172 128.269C29.6274 128.443 29.2865 128.529 28.8944 128.525ZM28.8944 127.9C29.1331 127.9 29.3471 127.84 29.5365 127.721C29.7278 127.602 29.8783 127.442 29.9882 127.241C30.0999 127.04 30.1558 126.817 30.1558 126.57C30.1558 126.33 30.1018 126.111 29.9939 125.914C29.8878 125.715 29.741 125.557 29.5535 125.44C29.3679 125.322 29.1558 125.263 28.9172 125.263C28.7372 125.263 28.5696 125.299 28.4143 125.371C28.259 125.442 28.1227 125.538 28.0052 125.661C27.8897 125.784 27.7988 125.925 27.7325 126.085C27.6662 126.242 27.6331 126.407 27.6331 126.582C27.6331 126.813 27.6871 127.029 27.795 127.229C27.9049 127.43 28.0545 127.592 28.2439 127.715C28.4352 127.838 28.652 127.9 28.8944 127.9ZM33.8525 128.525C33.4245 128.525 33.0599 128.408 32.7588 128.175C32.4577 127.941 32.2275 127.601 32.0684 127.156C31.9094 126.709 31.8298 126.169 31.8298 125.536C31.8298 124.907 31.9094 124.371 32.0684 123.925C32.2294 123.478 32.4605 123.138 32.7616 122.903C33.0647 122.666 33.4283 122.548 33.8525 122.548C34.2768 122.548 34.6395 122.666 34.9406 122.903C35.2436 123.138 35.4747 123.478 35.6338 123.925C35.7948 124.371 35.8753 124.907 35.8753 125.536C35.8753 126.169 35.7957 126.709 35.6366 127.156C35.4775 127.601 35.2474 127.941 34.9463 128.175C34.6452 128.408 34.2806 128.525 33.8525 128.525ZM33.8525 127.9C34.2768 127.9 34.6063 127.695 34.8412 127.286C35.076 126.877 35.1934 126.294 35.1934 125.536C35.1934 125.032 35.1395 124.603 35.0315 124.249C34.9255 123.895 34.772 123.625 34.5713 123.44C34.3724 123.254 34.1328 123.161 33.8525 123.161C33.4321 123.161 33.1035 123.369 32.8667 123.783C32.63 124.196 32.5116 124.781 32.5116 125.536C32.5116 126.04 32.5647 126.468 32.6707 126.82C32.7768 127.173 32.9292 127.441 33.1281 127.624C33.3289 127.808 33.5703 127.9 33.8525 127.9ZM38.8525 128.525C38.4245 128.525 38.0599 128.408 37.7588 128.175C37.4577 127.941 37.2275 127.601 37.0684 127.156C36.9094 126.709 36.8298 126.169 36.8298 125.536C36.8298 124.907 36.9094 124.371 37.0684 123.925C37.2294 123.478 37.4605 123.138 37.7616 122.903C38.0647 122.666 38.4283 122.548 38.8525 122.548C39.2768 122.548 39.6395 122.666 39.9406 122.903C40.2436 123.138 40.4747 123.478 40.6338 123.925C40.7948 124.371 40.8753 124.907 40.8753 125.536C40.8753 126.169 40.7957 126.709 40.6366 127.156C40.4775 127.601 40.2474 127.941 39.9463 128.175C39.6452 128.408 39.2806 128.525 38.8525 128.525ZM38.8525 127.9C39.2768 127.9 39.6063 127.695 39.8412 127.286C40.076 126.877 40.1934 126.294 40.1934 125.536C40.1934 125.032 40.1395 124.603 40.0315 124.249C39.9255 123.895 39.772 123.625 39.5713 123.44C39.3724 123.254 39.1328 123.161 38.8525 123.161C38.4321 123.161 38.1035 123.369 37.8667 123.783C37.63 124.196 37.5116 124.781 37.5116 125.536C37.5116 126.04 37.5647 126.468 37.6707 126.82C37.7768 127.173 37.9292 127.441 38.1281 127.624C38.3289 127.808 38.5703 127.9 38.8525 127.9ZM43.8525 128.525C43.4245 128.525 43.0599 128.408 42.7588 128.175C42.4577 127.941 42.2275 127.601 42.0684 127.156C41.9094 126.709 41.8298 126.169 41.8298 125.536C41.8298 124.907 41.9094 124.371 42.0684 123.925C42.2294 123.478 42.4605 123.138 42.7616 122.903C43.0647 122.666 43.4283 122.548 43.8525 122.548C44.2768 122.548 44.6395 122.666 44.9406 122.903C45.2436 123.138 45.4747 123.478 45.6338 123.925C45.7948 124.371 45.8753 124.907 45.8753 125.536C45.8753 126.169 45.7957 126.709 45.6366 127.156C45.4775 127.601 45.2474 127.941 44.9463 128.175C44.6452 128.408 44.2806 128.525 43.8525 128.525ZM43.8525 127.9C44.2768 127.9 44.6063 127.695 44.8412 127.286C45.076 126.877 45.1934 126.294 45.1934 125.536C45.1934 125.032 45.1395 124.603 45.0315 124.249C44.9255 123.895 44.772 123.625 44.5713 123.44C44.3724 123.254 44.1328 123.161 43.8525 123.161C43.4321 123.161 43.1035 123.369 42.8667 123.783C42.63 124.196 42.5116 124.781 42.5116 125.536C42.5116 126.04 42.5647 126.468 42.6707 126.82C42.7768 127.173 42.9292 127.441 43.1281 127.624C43.3289 127.808 43.5703 127.9 43.8525 127.9Z" fill="#595959"/>
<path d="M28.8888 88.3764C28.4986 88.3764 28.1539 88.3073 27.8547 88.169C27.5573 88.0289 27.3253 87.8366 27.1586 87.5923C26.992 87.3461 26.9096 87.0658 26.9115 86.7514C26.9096 86.5052 26.9579 86.2779 27.0564 86.0696C27.1549 85.8594 27.2893 85.6842 27.4598 85.544C27.6321 85.402 27.8244 85.312 28.0365 85.2741V85.2401C27.7581 85.1681 27.5365 85.0118 27.3717 84.7713C27.2069 84.5289 27.1255 84.2533 27.1274 83.9446C27.1255 83.6491 27.2003 83.3849 27.3518 83.152C27.5033 82.919 27.7117 82.7353 27.9768 82.6009C28.2439 82.4664 28.5479 82.3991 28.8888 82.3991C29.2259 82.3991 29.527 82.4664 29.7922 82.6009C30.0573 82.7353 30.2657 82.919 30.4172 83.152C30.5706 83.3849 30.6482 83.6491 30.6501 83.9446C30.6482 84.2533 30.564 84.5289 30.3973 84.7713C30.2325 85.0118 30.0138 85.1681 29.741 85.2401V85.2741C29.9513 85.312 30.1407 85.402 30.3092 85.544C30.4778 85.6842 30.6122 85.8594 30.7126 86.0696C30.813 86.2779 30.8641 86.5052 30.866 86.7514C30.8641 87.0658 30.7789 87.3461 30.6104 87.5923C30.4437 87.8366 30.2117 88.0289 29.9143 88.169C29.6189 88.3073 29.277 88.3764 28.8888 88.3764ZM28.8888 87.7514C29.152 87.7514 29.3793 87.7088 29.5706 87.6236C29.7619 87.5384 29.9096 87.4181 30.0138 87.2628C30.1179 87.1075 30.171 86.9257 30.1729 86.7173C30.171 86.4976 30.1141 86.3035 30.0024 86.1349C29.8907 85.9664 29.7382 85.8338 29.545 85.7372C29.3537 85.6406 29.135 85.5923 28.8888 85.5923C28.6407 85.5923 28.4191 85.6406 28.224 85.7372C28.0308 85.8338 27.8783 85.9664 27.7666 86.1349C27.6568 86.3035 27.6028 86.4976 27.6047 86.7173C27.6028 86.9257 27.653 87.1075 27.7552 87.2628C27.8594 87.4181 28.0081 87.5384 28.2013 87.6236C28.3944 87.7088 28.6236 87.7514 28.8888 87.7514ZM28.8888 84.9901C29.0971 84.9901 29.2818 84.9484 29.4427 84.8651C29.6056 84.7817 29.7335 84.6652 29.8263 84.5156C29.9191 84.366 29.9664 84.1908 29.9683 83.9901C29.9664 83.7931 29.92 83.6217 29.8291 83.4759C29.7382 83.3281 29.6122 83.2145 29.4513 83.1349C29.2903 83.0535 29.1028 83.0128 28.8888 83.0128C28.671 83.0128 28.4806 83.0535 28.3177 83.1349C28.1549 83.2145 28.0289 83.3281 27.9399 83.4759C27.8509 83.6217 27.8073 83.7931 27.8092 83.9901C27.8073 84.1908 27.8518 84.366 27.9427 84.5156C28.0355 84.6652 28.1634 84.7817 28.3263 84.8651C28.4891 84.9484 28.6766 84.9901 28.8888 84.9901ZM33.8525 88.3764C33.4245 88.3764 33.0599 88.2599 32.7588 88.027C32.4577 87.7921 32.2275 87.4522 32.0684 87.0071C31.9094 86.5601 31.8298 86.0204 31.8298 85.3878C31.8298 84.759 31.9094 84.2221 32.0684 83.777C32.2294 83.33 32.4605 82.9891 32.7616 82.7543C33.0647 82.5175 33.4283 82.3991 33.8525 82.3991C34.2768 82.3991 34.6395 82.5175 34.9406 82.7543C35.2436 82.9891 35.4747 83.33 35.6338 83.777C35.7948 84.2221 35.8753 84.759 35.8753 85.3878C35.8753 86.0204 35.7957 86.5601 35.6366 87.0071C35.4775 87.4522 35.2474 87.7921 34.9463 88.027C34.6452 88.2599 34.2806 88.3764 33.8525 88.3764ZM33.8525 87.7514C34.2768 87.7514 34.6063 87.5469 34.8412 87.1378C35.076 86.7287 35.1934 86.1454 35.1934 85.3878C35.1934 84.884 35.1395 84.455 35.0315 84.1009C34.9255 83.7467 34.772 83.4768 34.5713 83.2912C34.3724 83.1056 34.1328 83.0128 33.8525 83.0128C33.4321 83.0128 33.1035 83.2202 32.8667 83.6349C32.63 84.0478 32.5116 84.6321 32.5116 85.3878C32.5116 85.8916 32.5647 86.3196 32.6707 86.6719C32.7768 87.0241 32.9292 87.2921 33.1281 87.4759C33.3289 87.6596 33.5703 87.7514 33.8525 87.7514ZM38.8525 88.3764C38.4245 88.3764 38.0599 88.2599 37.7588 88.027C37.4577 87.7921 37.2275 87.4522 37.0684 87.0071C36.9094 86.5601 36.8298 86.0204 36.8298 85.3878C36.8298 84.759 36.9094 84.2221 37.0684 83.777C37.2294 83.33 37.4605 82.9891 37.7616 82.7543C38.0647 82.5175 38.4283 82.3991 38.8525 82.3991C39.2768 82.3991 39.6395 82.5175 39.9406 82.7543C40.2436 82.9891 40.4747 83.33 40.6338 83.777C40.7948 84.2221 40.8753 84.759 40.8753 85.3878C40.8753 86.0204 40.7957 86.5601 40.6366 87.0071C40.4775 87.4522 40.2474 87.7921 39.9463 88.027C39.6452 88.2599 39.2806 88.3764 38.8525 88.3764ZM38.8525 87.7514C39.2768 87.7514 39.6063 87.5469 39.8412 87.1378C40.076 86.7287 40.1934 86.1454 40.1934 85.3878C40.1934 84.884 40.1395 84.455 40.0315 84.1009C39.9255 83.7467 39.772 83.4768 39.5713 83.2912C39.3724 83.1056 39.1328 83.0128 38.8525 83.0128C38.4321 83.0128 38.1035 83.2202 37.8667 83.6349C37.63 84.0478 37.5116 84.6321 37.5116 85.3878C37.5116 85.8916 37.5647 86.3196 37.6707 86.6719C37.7768 87.0241 37.9292 87.2921 38.1281 87.4759C38.3289 87.6596 38.5703 87.7514 38.8525 87.7514ZM43.8525 88.3764C43.4245 88.3764 43.0599 88.2599 42.7588 88.027C42.4577 87.7921 42.2275 87.4522 42.0684 87.0071C41.9094 86.5601 41.8298 86.0204 41.8298 85.3878C41.8298 84.759 41.9094 84.2221 42.0684 83.777C42.2294 83.33 42.4605 82.9891 42.7616 82.7543C43.0647 82.5175 43.4283 82.3991 43.8525 82.3991C44.2768 82.3991 44.6395 82.5175 44.9406 82.7543C45.2436 82.9891 45.4747 83.33 45.6338 83.777C45.7948 84.2221 45.8753 84.759 45.8753 85.3878C45.8753 86.0204 45.7957 86.5601 45.6366 87.0071C45.4775 87.4522 45.2474 87.7921 44.9463 88.027C44.6452 88.2599 44.2806 88.3764 43.8525 88.3764ZM43.8525 87.7514C44.2768 87.7514 44.6063 87.5469 44.8412 87.1378C45.076 86.7287 45.1934 86.1454 45.1934 85.3878C45.1934 84.884 45.1395 84.455 45.0315 84.1009C44.9255 83.7467 44.772 83.4768 44.5713 83.2912C44.3724 83.1056 44.1328 83.0128 43.8525 83.0128C43.4321 83.0128 43.1035 83.2202 42.8667 83.6349C42.63 84.0478 42.5116 84.6321 42.5116 85.3878C42.5116 85.8916 42.5647 86.3196 42.6707 86.6719C42.7768 87.0241 42.9292 87.2921 43.1281 87.4759C43.3289 87.6596 43.5703 87.7514 43.8525 87.7514Z" fill="#595959"/>
<path d="M25.2815 42.3298V48.1479H24.577V43.0684H24.5429L23.1224 44.0116V43.2957L24.577 42.3298H25.2815ZM28.8525 48.2275C28.4245 48.2275 28.0599 48.111 27.7588 47.8781C27.4577 47.6432 27.2275 47.3033 27.0684 46.8582C26.9094 46.4112 26.8298 45.8714 26.8298 45.2389C26.8298 44.6101 26.9094 44.0731 27.0684 43.6281C27.2294 43.1811 27.4605 42.8402 27.7616 42.6053C28.0647 42.3686 28.4283 42.2502 28.8525 42.2502C29.2768 42.2502 29.6395 42.3686 29.9406 42.6053C30.2436 42.8402 30.4747 43.1811 30.6338 43.6281C30.7948 44.0731 30.8753 44.6101 30.8753 45.2389C30.8753 45.8714 30.7957 46.4112 30.6366 46.8582C30.4775 47.3033 30.2474 47.6432 29.9463 47.8781C29.6452 48.111 29.2806 48.2275 28.8525 48.2275ZM28.8525 47.6025C29.2768 47.6025 29.6063 47.3979 29.8412 46.9889C30.076 46.5798 30.1934 45.9964 30.1934 45.2389C30.1934 44.7351 30.1395 44.3061 30.0315 43.9519C29.9255 43.5978 29.772 43.3279 29.5713 43.1423C29.3724 42.9567 29.1328 42.8639 28.8525 42.8639C28.4321 42.8639 28.1035 43.0712 27.8667 43.486C27.63 43.8989 27.5116 44.4832 27.5116 45.2389C27.5116 45.7426 27.5647 46.1707 27.6707 46.5229C27.7768 46.8752 27.9292 47.1432 28.1281 47.3269C28.3289 47.5106 28.5703 47.6025 28.8525 47.6025ZM33.8525 48.2275C33.4245 48.2275 33.0599 48.111 32.7588 47.8781C32.4577 47.6432 32.2275 47.3033 32.0684 46.8582C31.9094 46.4112 31.8298 45.8714 31.8298 45.2389C31.8298 44.6101 31.9094 44.0731 32.0684 43.6281C32.2294 43.1811 32.4605 42.8402 32.7616 42.6053C33.0647 42.3686 33.4283 42.2502 33.8525 42.2502C34.2768 42.2502 34.6395 42.3686 34.9406 42.6053C35.2436 42.8402 35.4747 43.1811 35.6338 43.6281C35.7948 44.0731 35.8753 44.6101 35.8753 45.2389C35.8753 45.8714 35.7957 46.4112 35.6366 46.8582C35.4775 47.3033 35.2474 47.6432 34.9463 47.8781C34.6452 48.111 34.2806 48.2275 33.8525 48.2275ZM33.8525 47.6025C34.2768 47.6025 34.6063 47.3979 34.8412 46.9889C35.076 46.5798 35.1934 45.9964 35.1934 45.2389C35.1934 44.7351 35.1395 44.3061 35.0315 43.9519C34.9255 43.5978 34.772 43.3279 34.5713 43.1423C34.3724 42.9567 34.1328 42.8639 33.8525 42.8639C33.4321 42.8639 33.1035 43.0712 32.8667 43.486C32.63 43.8989 32.5116 44.4832 32.5116 45.2389C32.5116 45.7426 32.5647 46.1707 32.6707 46.5229C32.7768 46.8752 32.9292 47.1432 33.1281 47.3269C33.3289 47.5106 33.5703 47.6025 33.8525 47.6025ZM38.8525 48.2275C38.4245 48.2275 38.0599 48.111 37.7588 47.8781C37.4577 47.6432 37.2275 47.3033 37.0684 46.8582C36.9094 46.4112 36.8298 45.8714 36.8298 45.2389C36.8298 44.6101 36.9094 44.0731 37.0684 43.6281C37.2294 43.1811 37.4605 42.8402 37.7616 42.6053C38.0647 42.3686 38.4283 42.2502 38.8525 42.2502C39.2768 42.2502 39.6395 42.3686 39.9406 42.6053C40.2436 42.8402 40.4747 43.1811 40.6338 43.6281C40.7948 44.0731 40.8753 44.6101 40.8753 45.2389C40.8753 45.8714 40.7957 46.4112 40.6366 46.8582C40.4775 47.3033 40.2474 47.6432 39.9463 47.8781C39.6452 48.111 39.2806 48.2275 38.8525 48.2275ZM38.8525 47.6025C39.2768 47.6025 39.6063 47.3979 39.8412 46.9889C40.076 46.5798 40.1934 45.9964 40.1934 45.2389C40.1934 44.7351 40.1395 44.3061 40.0315 43.9519C39.9255 43.5978 39.772 43.3279 39.5713 43.1423C39.3724 42.9567 39.1328 42.8639 38.8525 42.8639C38.4321 42.8639 38.1035 43.0712 37.8667 43.486C37.63 43.8989 37.5116 44.4832 37.5116 45.2389C37.5116 45.7426 37.5647 46.1707 37.6707 46.5229C37.7768 46.8752 37.9292 47.1432 38.1281 47.3269C38.3289 47.5106 38.5703 47.6025 38.8525 47.6025ZM43.8525 48.2275C43.4245 48.2275 43.0599 48.111 42.7588 47.8781C42.4577 47.6432 42.2275 47.3033 42.0684 46.8582C41.9094 46.4112 41.8298 45.8714 41.8298 45.2389C41.8298 44.6101 41.9094 44.0731 42.0684 43.6281C42.2294 43.1811 42.4605 42.8402 42.7616 42.6053C43.0647 42.3686 43.4283 42.2502 43.8525 42.2502C44.2768 42.2502 44.6395 42.3686 44.9406 42.6053C45.2436 42.8402 45.4747 43.1811 45.6338 43.6281C45.7948 44.0731 45.8753 44.6101 45.8753 45.2389C45.8753 45.8714 45.7957 46.4112 45.6366 46.8582C45.4775 47.3033 45.2474 47.6432 44.9463 47.8781C44.6452 48.111 44.2806 48.2275 43.8525 48.2275ZM43.8525 47.6025C44.2768 47.6025 44.6063 47.3979 44.8412 46.9889C45.076 46.5798 45.1934 45.9964 45.1934 45.2389C45.1934 44.7351 45.1395 44.3061 45.0315 43.9519C44.9255 43.5978 44.772 43.3279 44.5713 43.1423C44.3724 42.9567 44.1328 42.8639 43.8525 42.8639C43.4321 42.8639 43.1035 43.0712 42.8667 43.486C42.63 43.8989 42.5116 44.4832 42.5116 45.2389C42.5116 45.7426 42.5647 46.1707 42.6707 46.5229C42.7768 46.8752 42.9292 47.1432 43.1281 47.3269C43.3289 47.5106 43.5703 47.6025 43.8525 47.6025Z" fill="#595959"/>
<path d="M25.4378 2.18182V8H24.7332V2.92045H24.6991L23.2787 3.86364V3.14773L24.7332 2.18182H25.4378ZM27.1111 8V7.48864L29.0315 5.38636C29.2569 5.14015 29.4425 4.92614 29.5883 4.74432C29.7342 4.56061 29.8421 4.38826 29.9122 4.22727C29.9842 4.06439 30.0202 3.89394 30.0202 3.71591C30.0202 3.51136 29.9709 3.33428 29.8724 3.18466C29.7758 3.03504 29.6433 2.91951 29.4747 2.83807C29.3061 2.75663 29.1167 2.71591 28.9065 2.71591C28.683 2.71591 28.488 2.76231 28.3213 2.85511C28.1565 2.94602 28.0287 3.07386 27.9378 3.23864C27.8488 3.40341 27.8042 3.59659 27.8042 3.81818H27.1338C27.1338 3.47727 27.2124 3.17803 27.3696 2.92045C27.5268 2.66288 27.7408 2.46212 28.0116 2.31818C28.2844 2.17424 28.5902 2.10227 28.9292 2.10227C29.2702 2.10227 29.5722 2.17424 29.8355 2.31818C30.0988 2.46212 30.3052 2.65625 30.4548 2.90057C30.6044 3.14489 30.6792 3.41667 30.6792 3.71591C30.6792 3.92992 30.6404 4.1392 30.5628 4.34375C30.487 4.5464 30.3544 4.77273 30.165 5.02273C29.9775 5.27083 29.7171 5.57386 29.3838 5.93182L28.077 7.32955V7.375H30.7815V8H27.1111ZM33.8525 8.07955C33.4245 8.07955 33.0599 7.96307 32.7588 7.73011C32.4577 7.49527 32.2275 7.1553 32.0684 6.71023C31.9094 6.26326 31.8298 5.72348 31.8298 5.09091C31.8298 4.46212 31.9094 3.92519 32.0684 3.48011C32.2294 3.03314 32.4605 2.69223 32.7616 2.45739C33.0647 2.22064 33.4283 2.10227 33.8525 2.10227C34.2768 2.10227 34.6395 2.22064 34.9406 2.45739C35.2436 2.69223 35.4747 3.03314 35.6338 3.48011C35.7948 3.92519 35.8753 4.46212 35.8753 5.09091C35.8753 5.72348 35.7957 6.26326 35.6366 6.71023C35.4775 7.1553 35.2474 7.49527 34.9463 7.73011C34.6452 7.96307 34.2806 8.07955 33.8525 8.07955ZM33.8525 7.45455C34.2768 7.45455 34.6063 7.25 34.8412 6.84091C35.076 6.43182 35.1934 5.84848 35.1934 5.09091C35.1934 4.58712 35.1395 4.15814 35.0315 3.80398C34.9255 3.44981 34.772 3.17992 34.5713 2.99432C34.3724 2.80871 34.1328 2.71591 33.8525 2.71591C33.4321 2.71591 33.1035 2.9233 32.8667 3.33807C32.63 3.75095 32.5116 4.33523 32.5116 5.09091C32.5116 5.5947 32.5647 6.02273 32.6707 6.375C32.7768 6.72727 32.9292 6.99527 33.1281 7.17898C33.3289 7.36269 33.5703 7.45455 33.8525 7.45455ZM38.8525 8.07955C38.4245 8.07955 38.0599 7.96307 37.7588 7.73011C37.4577 7.49527 37.2275 7.1553 37.0684 6.71023C36.9094 6.26326 36.8298 5.72348 36.8298 5.09091C36.8298 4.46212 36.9094 3.92519 37.0684 3.48011C37.2294 3.03314 37.4605 2.69223 37.7616 2.45739C38.0647 2.22064 38.4283 2.10227 38.8525 2.10227C39.2768 2.10227 39.6395 2.22064 39.9406 2.45739C40.2436 2.69223 40.4747 3.03314 40.6338 3.48011C40.7948 3.92519 40.8753 4.46212 40.8753 5.09091C40.8753 5.72348 40.7957 6.26326 40.6366 6.71023C40.4775 7.1553 40.2474 7.49527 39.9463 7.73011C39.6452 7.96307 39.2806 8.07955 38.8525 8.07955ZM38.8525 7.45455C39.2768 7.45455 39.6063 7.25 39.8412 6.84091C40.076 6.43182 40.1934 5.84848 40.1934 5.09091C40.1934 4.58712 40.1395 4.15814 40.0315 3.80398C39.9255 3.44981 39.772 3.17992 39.5713 2.99432C39.3724 2.80871 39.1328 2.71591 38.8525 2.71591C38.4321 2.71591 38.1035 2.9233 37.8667 3.33807C37.63 3.75095 37.5116 4.33523 37.5116 5.09091C37.5116 5.5947 37.5647 6.02273 37.6707 6.375C37.7768 6.72727 37.9292 6.99527 38.1281 7.17898C38.3289 7.36269 38.5703 7.45455 38.8525 7.45455ZM43.8525 8.07955C43.4245 8.07955 43.0599 7.96307 42.7588 7.73011C42.4577 7.49527 42.2275 7.1553 42.0684 6.71023C41.9094 6.26326 41.8298 5.72348 41.8298 5.09091C41.8298 4.46212 41.9094 3.92519 42.0684 3.48011C42.2294 3.03314 42.4605 2.69223 42.7616 2.45739C43.0647 2.22064 43.4283 2.10227 43.8525 2.10227C44.2768 2.10227 44.6395 2.22064 44.9406 2.45739C45.2436 2.69223 45.4747 3.03314 45.6338 3.48011C45.7948 3.92519 45.8753 4.46212 45.8753 5.09091C45.8753 5.72348 45.7957 6.26326 45.6366 6.71023C45.4775 7.1553 45.2474 7.49527 44.9463 7.73011C44.6452 7.96307 44.2806 8.07955 43.8525 8.07955ZM43.8525 7.45455C44.2768 7.45455 44.6063 7.25 44.8412 6.84091C45.076 6.43182 45.1934 5.84848 45.1934 5.09091C45.1934 4.58712 45.1395 4.15814 45.0315 3.80398C44.9255 3.44981 44.772 3.17992 44.5713 2.99432C44.3724 2.80871 44.1328 2.71591 43.8525 2.71591C43.4321 2.71591 43.1035 2.9233 42.8667 3.33807C42.63 3.75095 42.5116 4.33523 42.5116 5.09091C42.5116 5.5947 42.5647 6.02273 42.6707 6.375C42.7768 6.72727 42.9292 6.99527 43.1281 7.17898C43.3289 7.36269 43.5703 7.45455 43.8525 7.45455Z" fill="#595959"/>
<path d="M490.957 152V146.182H494.446V146.807H491.662V148.773H494.184V149.398H491.662V152H490.957ZM497.014 152.091C496.62 152.091 496.274 151.997 495.977 151.81C495.681 151.622 495.45 151.36 495.284 151.023C495.119 150.686 495.037 150.292 495.037 149.841C495.037 149.386 495.119 148.99 495.284 148.651C495.45 148.312 495.681 148.048 495.977 147.861C496.274 147.673 496.62 147.58 497.014 147.58C497.408 147.58 497.752 147.673 498.048 147.861C498.345 148.048 498.576 148.312 498.741 148.651C498.908 148.99 498.991 149.386 498.991 149.841C498.991 150.292 498.908 150.686 498.741 151.023C498.576 151.36 498.345 151.622 498.048 151.81C497.752 151.997 497.408 152.091 497.014 152.091ZM497.014 151.489C497.313 151.489 497.559 151.412 497.752 151.259C497.946 151.105 498.089 150.903 498.181 150.653C498.274 150.403 498.321 150.133 498.321 149.841C498.321 149.549 498.274 149.277 498.181 149.026C498.089 148.774 497.946 148.57 497.752 148.415C497.559 148.259 497.313 148.182 497.014 148.182C496.715 148.182 496.468 148.259 496.275 148.415C496.082 148.57 495.939 148.774 495.846 149.026C495.753 149.277 495.707 149.549 495.707 149.841C495.707 150.133 495.753 150.403 495.846 150.653C495.939 150.903 496.082 151.105 496.275 151.259C496.468 151.412 496.715 151.489 497.014 151.489ZM500.015 152V147.636H500.662V148.295H500.708C500.787 148.08 500.931 147.904 501.14 147.77C501.348 147.635 501.583 147.568 501.844 147.568C501.893 147.568 501.955 147.569 502.029 147.571C502.103 147.573 502.158 147.576 502.196 147.58V148.261C502.174 148.256 502.122 148.247 502.04 148.236C501.961 148.223 501.876 148.216 501.787 148.216C501.575 148.216 501.386 148.26 501.219 148.349C501.054 148.437 500.924 148.558 500.827 148.713C500.732 148.866 500.685 149.042 500.685 149.239V152H500.015ZM504.688 152.091C504.267 152.091 503.905 151.998 503.6 151.812C503.297 151.625 503.063 151.364 502.898 151.028C502.735 150.691 502.654 150.299 502.654 149.852C502.654 149.405 502.735 149.011 502.898 148.67C503.063 148.328 503.292 148.061 503.586 147.869C503.881 147.676 504.226 147.58 504.62 147.58C504.847 147.58 505.071 147.617 505.293 147.693C505.515 147.769 505.716 147.892 505.898 148.062C506.08 148.231 506.225 148.455 506.333 148.733C506.441 149.011 506.495 149.354 506.495 149.761V150.045H503.131V149.466H505.813C505.813 149.22 505.764 149 505.665 148.807C505.568 148.614 505.43 148.461 505.25 148.349C505.072 148.238 504.862 148.182 504.62 148.182C504.353 148.182 504.122 148.248 503.926 148.381C503.733 148.511 503.585 148.682 503.48 148.892C503.376 149.102 503.324 149.328 503.324 149.568V149.955C503.324 150.284 503.381 150.563 503.495 150.793C503.61 151.02 503.77 151.193 503.975 151.312C504.179 151.43 504.417 151.489 504.688 151.489C504.864 151.489 505.023 151.464 505.165 151.415C505.309 151.364 505.433 151.288 505.537 151.188C505.641 151.085 505.722 150.958 505.779 150.807L506.426 150.989C506.358 151.208 506.244 151.402 506.083 151.568C505.922 151.733 505.723 151.862 505.486 151.955C505.249 152.045 504.983 152.091 504.688 152.091ZM509.287 152.091C508.878 152.091 508.526 151.994 508.23 151.801C507.935 151.608 507.708 151.342 507.549 151.003C507.39 150.664 507.31 150.277 507.31 149.841C507.31 149.398 507.391 149.007 507.554 148.668C507.719 148.327 507.948 148.061 508.242 147.869C508.537 147.676 508.882 147.58 509.276 147.58C509.583 147.58 509.859 147.636 510.105 147.75C510.352 147.864 510.553 148.023 510.711 148.227C510.868 148.432 510.965 148.67 511.003 148.943H510.333C510.282 148.744 510.168 148.568 509.992 148.415C509.818 148.259 509.583 148.182 509.287 148.182C509.026 148.182 508.797 148.25 508.6 148.386C508.405 148.521 508.252 148.711 508.142 148.957C508.034 149.202 507.98 149.489 507.98 149.818C507.98 150.155 508.033 150.449 508.14 150.699C508.247 150.949 508.399 151.143 508.594 151.281C508.791 151.42 509.022 151.489 509.287 151.489C509.461 151.489 509.62 151.458 509.762 151.398C509.904 151.337 510.024 151.25 510.122 151.136C510.221 151.023 510.291 150.886 510.333 150.727H511.003C510.965 150.985 510.872 151.217 510.722 151.423C510.574 151.628 510.378 151.791 510.134 151.912C509.891 152.031 509.609 152.091 509.287 152.091ZM513.267 152.102C512.991 152.102 512.74 152.05 512.515 151.946C512.289 151.84 512.11 151.688 511.978 151.489C511.845 151.288 511.779 151.045 511.779 150.761C511.779 150.511 511.828 150.309 511.926 150.153C512.025 149.996 512.157 149.873 512.321 149.784C512.486 149.695 512.668 149.629 512.867 149.585C513.068 149.54 513.269 149.504 513.472 149.477C513.737 149.443 513.952 149.418 514.117 149.401C514.283 149.382 514.405 149.35 514.48 149.307C514.558 149.263 514.597 149.187 514.597 149.08V149.057C514.597 148.777 514.52 148.559 514.367 148.403C514.215 148.248 513.985 148.17 513.676 148.17C513.356 148.17 513.105 148.241 512.924 148.381C512.742 148.521 512.614 148.67 512.54 148.83L511.904 148.602C512.017 148.337 512.169 148.131 512.358 147.983C512.55 147.833 512.758 147.729 512.983 147.67C513.211 147.61 513.434 147.58 513.654 147.58C513.794 147.58 513.955 147.597 514.137 147.631C514.32 147.663 514.497 147.73 514.668 147.832C514.84 147.935 514.983 148.089 515.097 148.295C515.211 148.502 515.267 148.778 515.267 149.125V152H514.597V151.409H514.563C514.517 151.504 514.442 151.605 514.336 151.713C514.229 151.821 514.088 151.913 513.912 151.989C513.736 152.064 513.521 152.102 513.267 152.102ZM513.37 151.5C513.635 151.5 513.858 151.448 514.04 151.344C514.224 151.24 514.362 151.105 514.455 150.94C514.55 150.776 514.597 150.602 514.597 150.42V149.807C514.568 149.841 514.506 149.872 514.409 149.901C514.315 149.927 514.205 149.951 514.08 149.972C513.957 149.991 513.836 150.008 513.719 150.023C513.604 150.036 513.51 150.047 513.438 150.057C513.264 150.08 513.101 150.116 512.949 150.168C512.8 150.217 512.678 150.292 512.586 150.392C512.495 150.491 512.449 150.625 512.449 150.795C512.449 151.028 512.535 151.205 512.708 151.324C512.882 151.441 513.103 151.5 513.37 151.5ZM519.582 148.614L518.98 148.784C518.942 148.684 518.886 148.586 518.812 148.491C518.74 148.395 518.642 148.315 518.517 148.253C518.392 148.19 518.232 148.159 518.037 148.159C517.769 148.159 517.547 148.221 517.369 148.344C517.193 148.465 517.105 148.619 517.105 148.807C517.105 148.973 517.165 149.105 517.287 149.202C517.408 149.298 517.597 149.379 517.855 149.443L518.502 149.602C518.893 149.697 519.183 149.842 519.375 150.037C519.566 150.23 519.662 150.479 519.662 150.784C519.662 151.034 519.59 151.258 519.446 151.455C519.304 151.652 519.105 151.807 518.849 151.92C518.593 152.034 518.296 152.091 517.957 152.091C517.512 152.091 517.144 151.994 516.852 151.801C516.56 151.608 516.376 151.326 516.298 150.955L516.934 150.795C516.995 151.03 517.109 151.206 517.278 151.324C517.448 151.441 517.671 151.5 517.946 151.5C518.258 151.5 518.506 151.434 518.69 151.301C518.876 151.167 518.968 151.006 518.968 150.818C518.968 150.667 518.915 150.54 518.809 150.438C518.703 150.333 518.54 150.256 518.321 150.205L517.593 150.034C517.194 149.939 516.9 149.793 516.713 149.594C516.527 149.393 516.434 149.142 516.434 148.841C516.434 148.595 516.503 148.377 516.642 148.188C516.782 147.998 516.972 147.849 517.213 147.741C517.455 147.634 517.73 147.58 518.037 147.58C518.468 147.58 518.807 147.674 519.054 147.864C519.302 148.053 519.478 148.303 519.582 148.614ZM522.568 147.636V148.205H520.307V147.636H522.568ZM520.966 146.591H521.637V150.75C521.637 150.939 521.664 151.081 521.719 151.176C521.776 151.269 521.848 151.331 521.935 151.364C522.024 151.394 522.118 151.409 522.216 151.409C522.29 151.409 522.351 151.405 522.398 151.398C522.445 151.388 522.483 151.381 522.512 151.375L522.648 151.977C522.603 151.994 522.539 152.011 522.458 152.028C522.376 152.047 522.273 152.057 522.148 152.057C521.959 152.057 521.773 152.016 521.591 151.935C521.411 151.853 521.262 151.729 521.142 151.562C521.025 151.396 520.966 151.186 520.966 150.932V146.591ZM526.588 152V152.625H522.952V152H526.588ZM527.183 152V151.489L529.103 149.386C529.329 149.14 529.514 148.926 529.66 148.744C529.806 148.561 529.914 148.388 529.984 148.227C530.056 148.064 530.092 147.894 530.092 147.716C530.092 147.511 530.043 147.334 529.944 147.185C529.848 147.035 529.715 146.92 529.546 146.838C529.378 146.757 529.189 146.716 528.978 146.716C528.755 146.716 528.56 146.762 528.393 146.855C528.228 146.946 528.1 147.074 528.01 147.239C527.921 147.403 527.876 147.597 527.876 147.818H527.206C527.206 147.477 527.284 147.178 527.441 146.92C527.599 146.663 527.813 146.462 528.083 146.318C528.356 146.174 528.662 146.102 529.001 146.102C529.342 146.102 529.644 146.174 529.907 146.318C530.171 146.462 530.377 146.656 530.527 146.901C530.676 147.145 530.751 147.417 530.751 147.716C530.751 147.93 530.712 148.139 530.635 148.344C530.559 148.546 530.426 148.773 530.237 149.023C530.049 149.271 529.789 149.574 529.456 149.932L528.149 151.33V151.375H530.853V152H527.183ZM531.765 150.807V150.227L534.322 146.182H534.742V147.08H534.458L532.527 150.136V150.182H535.97V150.807H531.765ZM534.504 152V150.631V150.361V146.182H535.174V152H534.504Z" fill="#595959"/>
<line x1="462.252" y1="148" x2="481.252" y2="148" stroke="#FB923C" stroke-width="2"/>
</svg>
