<svg width="261" height="72" viewBox="0 0 261 72" fill="none" xmlns="http://www.w3.org/2000/svg">
<path fill-rule="evenodd" clip-rule="evenodd" d="M13.9315 51.8578L10.0732 58.2883C3.92108 53.2091 0 45.524 0 36.9231C0 21.629 12.3983 9.23076 27.6923 9.23076C31.692 9.23076 35.4936 10.0787 38.9272 11.6046L32.7243 17.2436C31.1151 16.8334 29.4292 16.6154 27.6923 16.6154C16.4767 16.6154 7.38462 25.7074 7.38462 36.9231C7.38462 42.8295 9.90615 48.147 13.9315 51.8578ZM55.3241 35.0769H47.9172C47.972 35.685 48 36.3008 48 36.9231C48 48.1387 38.9079 57.2308 27.6923 57.2308C26.4816 57.2308 25.2957 57.1248 24.1433 56.9217L18.4875 63.0488C21.3674 64.0634 24.4654 64.6154 27.6923 64.6154C42.9863 64.6154 55.3846 52.2171 55.3846 36.9231C55.3846 36.3027 55.3642 35.6871 55.3241 35.0769Z" fill="url(#paint0_linear_98_2750)"/>
<path d="M51.7403 0L11.1053 36.9231H22.9264L1.87013 72L42.5051 35.0769H30.684L51.7403 0Z" fill="url(#paint1_linear_98_2750)"/>
<path fill-rule="evenodd" clip-rule="evenodd" d="M82.3416 22.2797C73.9847 22.2797 67.2101 29.0543 67.2101 37.4112C67.2101 45.7681 73.9847 52.5427 82.3416 52.5427C90.2607 52.5427 96.759 46.4593 97.4181 38.7108H81.5897V36.1116H100.072V37.4112C100.072 47.2037 92.1341 55.142 82.3416 55.142C72.5492 55.142 64.6108 47.2037 64.6108 37.4112C64.6108 27.6188 72.5492 19.6804 82.3416 19.6804C87.3014 19.6804 91.7874 21.7185 95.0039 24.9996L95.9137 25.9277L94.0576 27.7473L93.1478 26.8192C90.4 24.0163 86.5748 22.2797 82.3416 22.2797Z" fill="black"/>
<path d="M129.527 54.9563H108.53V20.2435H129.433V22.9679H111.395V36.0263H128.211V38.7037H111.395V52.2318H129.527V54.9563Z" fill="black"/>
<path d="M141.955 54.9563H139.09V20.2435H140.358L155.624 42.6964L170.749 20.2435H172.064V54.9563H169.199V27.3363L155.953 46.9709H155.248L141.955 27.3833V54.9563Z" fill="black"/>
<path d="M209.046 54.9563H205.899L201.765 44.4344H187.157L183.023 54.9563H179.876L193.733 20.2435H195.283L209.046 54.9563ZM200.826 41.7569L194.484 25.3635L188.096 41.7569H200.826Z" fill="black"/>
<path d="M220.178 54.9563V23.0148H209.656V20.2435H233.565V23.0148H223.043V54.9563H220.178Z" fill="black"/>
<path d="M249.263 55.5199C246.758 55.5199 244.488 54.8936 242.452 53.641C240.417 52.3884 238.882 50.6035 237.849 48.2861L240.15 46.736C241.027 48.6463 242.233 50.1337 243.767 51.1984C245.333 52.2632 247.134 52.7955 249.169 52.7955C251.518 52.7955 253.428 52.1536 254.9 50.8696C256.372 49.5857 257.108 47.9886 257.108 46.0784C257.108 44.7632 256.732 43.6515 255.98 42.7434C255.229 41.8039 254.086 40.9427 252.551 40.1599C251.549 39.6588 250.359 39.1108 248.981 38.5158C247.228 37.7329 246.085 37.2006 245.552 36.9188C241.607 34.9459 239.634 32.1902 239.634 28.6516C239.634 26.0524 240.542 23.9073 242.358 22.2163C244.174 20.494 246.586 19.6328 249.592 19.6328C253.726 19.6328 256.998 21.3551 259.409 24.7998L257.249 26.5378C255.276 23.7194 252.739 22.3103 249.639 22.3103C247.572 22.3103 245.881 22.8896 244.566 24.0482C243.282 25.1756 242.64 26.6631 242.64 28.5106C242.64 30.8906 244.034 32.8165 246.821 34.2883C247.603 34.6954 248.872 35.2904 250.625 36.0732C252.567 36.9188 253.882 37.5294 254.571 37.9052C258.298 39.9407 260.161 42.6338 260.161 45.9845C260.161 48.8028 259.112 51.1045 257.014 52.8895C254.916 54.6431 252.332 55.5199 249.263 55.5199Z" fill="black"/>
<defs>
<linearGradient id="paint0_linear_98_2750" x1="45.2308" y1="9.6" x2="4.83756" y2="58.7133" gradientUnits="userSpaceOnUse">
<stop offset="0.182292" stop-color="#0098DA"/>
<stop offset="0.410714" stop-color="#00A859"/>
<stop offset="0.630208" stop-color="#A8CF45"/>
<stop offset="0.84375" stop-color="#F58634"/>
</linearGradient>
<linearGradient id="paint1_linear_98_2750" x1="45.2308" y1="9.6" x2="4.83756" y2="58.7133" gradientUnits="userSpaceOnUse">
<stop offset="0.182292" stop-color="#0098DA"/>
<stop offset="0.410714" stop-color="#00A859"/>
<stop offset="0.630208" stop-color="#A8CF45"/>
<stop offset="0.84375" stop-color="#F58634"/>
</linearGradient>
</defs>
</svg>
